<svg xmlns="http://www.w3.org/2000/svg" xmlns:xlink="http://www.w3.org/1999/xlink" width="500" zoomAndPan="magnify" viewBox="0 0 375 374.999991" height="500" preserveAspectRatio="xMidYMid meet" version="1.0"><defs><g/></defs><g fill="#000000" fill-opacity="1"><g transform="translate(76.214409, 232.63923)"><g><path d="M 80.8125 -35.578125 C 81.101562 -35.554688 81.335938 -35.46875 81.515625 -35.3125 C 81.703125 -35.164062 81.769531 -35.003906 81.71875 -34.828125 C 81.632812 -34.671875 81.53125 -34.5625 81.40625 -34.5 C 81.28125 -34.445312 81.144531 -34.421875 81 -34.421875 C 80.8125 -34.390625 80.617188 -34.375 80.421875 -34.375 C 77.648438 -33.988281 74.023438 -33.226562 69.546875 -32.09375 C 65.078125 -30.957031 61.484375 -29.976562 58.765625 -29.15625 C 56.679688 -28.53125 54.59375 -27.878906 52.5 -27.203125 C 52.457031 -27.203125 52.394531 -27.175781 52.3125 -27.125 C 51.445312 -26.851562 50.691406 -26.394531 50.046875 -25.75 C 47.609375 -23.457031 45.054688 -21.320312 42.390625 -19.34375 C 39.734375 -17.363281 37.007812 -15.476562 34.21875 -13.6875 C 29.664062 -10.738281 24.96875 -8.039062 20.125 -5.59375 C 19.125 -5.144531 18.460938 -4.390625 18.140625 -3.328125 C 16.617188 1.566406 14.972656 6.378906 13.203125 11.109375 C 11.628906 15.316406 10.164062 19.550781 8.8125 23.8125 C 8.8125 23.84375 8.796875 23.867188 8.765625 23.890625 C 8.734375 24.117188 8.660156 24.304688 8.546875 24.453125 C 8.367188 24.660156 8.140625 24.765625 7.859375 24.765625 C 7.703125 24.835938 7.550781 24.863281 7.40625 24.84375 C 7.070312 24.757812 6.875 24.550781 6.8125 24.21875 C 6.769531 23.65625 6.863281 23.109375 7.09375 22.578125 C 7.113281 22.546875 7.117188 22.515625 7.109375 22.484375 C 8.554688 18.484375 9.96875 14.492188 11.34375 10.515625 C 12.726562 6.546875 14.035156 2.535156 15.265625 -1.515625 C 15.367188 -1.859375 15.46875 -2.203125 15.5625 -2.546875 C 15.59375 -2.722656 15.632812 -2.90625 15.6875 -3.09375 C 15.5 -3.101562 15.320312 -3.113281 15.15625 -3.125 C 14.882812 -3.019531 14.617188 -2.894531 14.359375 -2.75 C 14.253906 -2.707031 14.160156 -2.65625 14.078125 -2.59375 C 10.679688 -0.988281 7.21875 0.46875 3.6875 1.78125 C 1.238281 2.632812 -1.238281 3.363281 -3.75 3.96875 C -3.875 4 -3.988281 4.023438 -4.09375 4.046875 C -4.34375 4.109375 -4.59375 4.160156 -4.84375 4.203125 C -5.832031 4.359375 -6.816406 4.367188 -7.796875 4.234375 C -8.535156 4.085938 -9.019531 3.75 -9.25 3.21875 C -9.476562 2.6875 -9.40625 2.066406 -9.03125 1.359375 C -8.519531 0.515625 -7.867188 -0.210938 -7.078125 -0.828125 C -5.316406 -2.367188 -3.414062 -3.710938 -1.375 -4.859375 C 4.039062 -7.972656 9.582031 -10.84375 15.25 -13.46875 C 15.550781 -13.625 15.878906 -13.769531 16.234375 -13.90625 C 16.960938 -14.1875 17.628906 -14.523438 18.234375 -14.921875 C 18.847656 -15.328125 19.269531 -15.921875 19.5 -16.703125 C 20.269531 -19.773438 21 -22.847656 21.6875 -25.921875 C 22.375 -29.003906 22.972656 -32.117188 23.484375 -35.265625 C 23.484375 -35.285156 23.488281 -35.320312 23.5 -35.375 C 23.570312 -35.945312 23.695312 -36.492188 23.875 -37.015625 C 23.945312 -37.179688 24.0625 -37.3125 24.21875 -37.40625 C 24.382812 -37.507812 24.554688 -37.550781 24.734375 -37.53125 C 24.859375 -37.59375 24.992188 -37.613281 25.140625 -37.59375 C 25.546875 -37.570312 25.804688 -37.351562 25.921875 -36.9375 C 26.054688 -36.144531 26.035156 -35.359375 25.859375 -34.578125 C 25.867188 -34.554688 25.863281 -34.523438 25.84375 -34.484375 C 25.21875 -30.453125 24.4375 -26.46875 23.5 -22.53125 C 23.238281 -21.445312 22.984375 -20.375 22.734375 -19.3125 C 22.617188 -18.925781 22.515625 -18.53125 22.421875 -18.125 C 22.304688 -17.644531 22.28125 -17.320312 22.34375 -17.15625 C 22.40625 -16.988281 22.535156 -16.925781 22.734375 -16.96875 C 22.929688 -17.007812 23.171875 -17.113281 23.453125 -17.28125 C 23.523438 -17.3125 23.613281 -17.347656 23.71875 -17.390625 C 24.800781 -17.859375 25.878906 -18.320312 26.953125 -18.78125 C 28.910156 -19.632812 30.875 -20.476562 32.84375 -21.3125 C 37.695312 -23.3125 42.617188 -25.148438 47.609375 -26.828125 C 48.484375 -27.128906 49.21875 -27.613281 49.8125 -28.28125 C 51.09375 -29.625 52.320312 -31.148438 53.5 -32.859375 C 54.675781 -34.578125 55.59375 -36.367188 56.25 -38.234375 C 56.90625 -40.109375 57.039062 -41.941406 56.65625 -43.734375 C 56.269531 -45.523438 55.144531 -47.1875 53.28125 -48.71875 C 52.09375 -49.625 50.789062 -50.332031 49.375 -50.84375 C 46.40625 -51.851562 42.945312 -52.390625 39 -52.453125 C 35.0625 -52.523438 30.898438 -52.222656 26.515625 -51.546875 C 22.140625 -50.878906 17.796875 -49.945312 13.484375 -48.75 C 9.171875 -47.5625 5.171875 -46.222656 1.484375 -44.734375 C -2.203125 -43.253906 -5.332031 -41.738281 -7.90625 -40.1875 C -10.113281 -38.863281 -12.175781 -37.34375 -14.09375 -35.625 C -14.882812 -34.945312 -15.609375 -34.226562 -16.265625 -33.46875 C -16.921875 -32.707031 -17.484375 -31.867188 -17.953125 -30.953125 C -18.117188 -30.566406 -18.394531 -30.332031 -18.78125 -30.25 C -18.863281 -30.226562 -18.953125 -30.210938 -19.046875 -30.203125 C -19.078125 -30.191406 -19.101562 -30.1875 -19.125 -30.1875 C -19.28125 -30.15625 -19.429688 -30.148438 -19.578125 -30.171875 C -19.722656 -30.191406 -19.84375 -30.257812 -19.9375 -30.375 C -20.007812 -30.457031 -20.050781 -30.550781 -20.0625 -30.65625 C -20.082031 -30.769531 -20.09375 -30.875 -20.09375 -30.96875 C -19.96875 -31.457031 -19.765625 -31.90625 -19.484375 -32.3125 C -19.203125 -32.726562 -18.914062 -33.128906 -18.625 -33.515625 C -17.820312 -34.453125 -16.972656 -35.320312 -16.078125 -36.125 C -15.179688 -36.925781 -14.253906 -37.691406 -13.296875 -38.421875 C -10.828125 -40.285156 -7.585938 -42.128906 -3.578125 -43.953125 C 0.429688 -45.773438 4.890625 -47.441406 9.796875 -48.953125 C 14.710938 -50.472656 19.710938 -51.679688 24.796875 -52.578125 C 29.890625 -53.472656 34.722656 -53.910156 39.296875 -53.890625 C 43.878906 -53.878906 47.875 -53.257812 51.28125 -52.03125 C 52.8125 -51.5 54.234375 -50.726562 55.546875 -49.71875 C 57.378906 -48.207031 58.539062 -46.609375 59.03125 -44.921875 C 59.53125 -43.242188 59.566406 -41.539062 59.140625 -39.8125 C 58.710938 -38.09375 58.015625 -36.398438 57.046875 -34.734375 C 56.078125 -33.078125 55.0625 -31.507812 54 -30.03125 C 53.875 -29.882812 53.75 -29.703125 53.625 -29.484375 C 53.5 -29.265625 53.457031 -29.09375 53.5 -28.96875 C 53.550781 -28.851562 53.753906 -28.851562 54.109375 -28.96875 C 58.265625 -30.34375 62.4375 -31.550781 66.625 -32.59375 C 70.820312 -33.644531 75.054688 -34.582031 79.328125 -35.40625 C 79.460938 -35.425781 79.582031 -35.441406 79.6875 -35.453125 L 79.71875 -35.46875 C 80.082031 -35.519531 80.445312 -35.554688 80.8125 -35.578125 Z M 16.640625 -6.140625 C 16.691406 -6.390625 16.8125 -6.742188 17 -7.203125 C 17.238281 -7.941406 17.488281 -8.757812 17.75 -9.65625 C 18.007812 -10.550781 18.175781 -11.320312 18.25 -11.96875 C 18.332031 -12.625 18.191406 -12.957031 17.828125 -12.96875 C 17.617188 -12.882812 17.410156 -12.796875 17.203125 -12.703125 C 17.160156 -12.691406 17.097656 -12.664062 17.015625 -12.625 C 16.242188 -12.25 15.46875 -11.878906 14.6875 -11.515625 C 12.820312 -10.617188 10.957031 -9.695312 9.09375 -8.75 C 9.019531 -8.707031 8.9375 -8.65625 8.84375 -8.59375 C 5.488281 -6.945312 2.21875 -5.148438 -0.96875 -3.203125 C -2.570312 -2.210938 -4.070312 -1.078125 -5.46875 0.203125 C -6 0.628906 -6.40625 1.148438 -6.6875 1.765625 C -6.8125 2.015625 -6.820312 2.226562 -6.71875 2.40625 C -6.625 2.59375 -6.445312 2.722656 -6.1875 2.796875 C -5.613281 2.867188 -5.050781 2.859375 -4.5 2.765625 C -4.019531 2.691406 -3.535156 2.59375 -3.046875 2.46875 C -3.023438 2.46875 -3.015625 2.46875 -3.015625 2.46875 C -0.535156 1.800781 1.878906 0.984375 4.234375 0.015625 C 7.972656 -1.460938 11.632812 -3.082031 15.21875 -4.84375 C 15.269531 -4.882812 15.304688 -4.90625 15.328125 -4.90625 C 15.617188 -5.03125 15.878906 -5.179688 16.109375 -5.359375 C 16.347656 -5.546875 16.523438 -5.804688 16.640625 -6.140625 Z M 19.765625 -7.34375 C 21.960938 -8.300781 24.898438 -9.90625 28.578125 -12.15625 C 32.265625 -14.414062 35.78125 -16.738281 39.125 -19.125 C 42.476562 -21.507812 44.710938 -23.398438 45.828125 -24.796875 C 45.648438 -24.765625 45.503906 -24.738281 45.390625 -24.71875 C 45.328125 -24.707031 45.285156 -24.703125 45.265625 -24.703125 C 37.535156 -21.816406 29.929688 -18.644531 22.453125 -15.1875 C 21.785156 -14.875 21.378906 -14.382812 21.234375 -13.71875 C 20.921875 -12.613281 20.617188 -11.523438 20.328125 -10.453125 C 20.078125 -9.648438 19.835938 -8.84375 19.609375 -8.03125 C 19.578125 -7.914062 19.566406 -7.789062 19.578125 -7.65625 C 19.585938 -7.53125 19.648438 -7.425781 19.765625 -7.34375 Z M 19.765625 -7.34375 "/></g></g><g transform="translate(124.865898, 224.737074)"><g><path d="M 6.59375 -12 C 6.625 -11.1875 6.332031 -10.609375 5.71875 -10.265625 C 5.113281 -9.921875 4.851562 -10.203125 4.9375 -11.109375 C 5.019531 -12.023438 4.585938 -12.1875 3.640625 -11.59375 C 2.691406 -11 1.945312 -10.3125 1.40625 -9.53125 C 0.550781 -8.332031 -0.171875 -7.066406 -0.765625 -5.734375 C -0.835938 -5.609375 -0.890625 -5.507812 -0.921875 -5.4375 C -1.097656 -5.070312 -1.273438 -4.710938 -1.453125 -4.359375 C -1.566406 -4.128906 -1.722656 -3.972656 -1.921875 -3.890625 C -2.117188 -3.816406 -2.320312 -3.773438 -2.53125 -3.765625 C -2.738281 -3.765625 -2.90625 -3.816406 -3.03125 -3.921875 C -3.15625 -4.023438 -3.1875 -4.171875 -3.125 -4.359375 C -3.050781 -4.703125 -2.953125 -5.046875 -2.828125 -5.390625 C -2.109375 -7.492188 -1.367188 -9.601562 -0.609375 -11.71875 C -0.585938 -11.738281 -0.582031 -11.765625 -0.59375 -11.796875 C -0.476562 -12.128906 -0.34375 -12.441406 -0.1875 -12.734375 C 0.0078125 -13.015625 0.257812 -13.15625 0.5625 -13.15625 C 0.863281 -13.15625 1.09375 -13.015625 1.25 -12.734375 C 1.445312 -12.347656 1.597656 -12.132812 1.703125 -12.09375 C 1.804688 -12.050781 2.003906 -12.125 2.296875 -12.3125 C 2.960938 -12.6875 3.613281 -12.976562 4.25 -13.1875 C 4.894531 -13.394531 5.441406 -13.453125 5.890625 -13.359375 C 6.335938 -13.265625 6.570312 -12.8125 6.59375 -12 Z M 6.59375 -12 "/></g></g><g transform="translate(133.541271, 223.327988)"><g><path d="M 5.6875 -8.4375 C 5.195312 -7.601562 4.578125 -6.8125 3.828125 -6.0625 C 3.085938 -5.3125 2.203125 -4.742188 1.171875 -4.359375 C 0.148438 -3.972656 -0.679688 -3.914062 -1.328125 -4.1875 C -1.984375 -4.457031 -2.234375 -5.257812 -2.078125 -6.59375 C -1.835938 -7.988281 -1.40625 -9.347656 -0.78125 -10.671875 C -0.632812 -10.960938 -0.398438 -11.1875 -0.078125 -11.34375 C 0.160156 -11.4375 0.390625 -11.425781 0.609375 -11.3125 C 0.828125 -11.195312 0.929688 -11.023438 0.921875 -10.796875 C 0.816406 -10.347656 0.691406 -9.898438 0.546875 -9.453125 C 0.410156 -9.003906 0.320312 -8.710938 0.28125 -8.578125 C -0.0195312 -7.765625 -0.179688 -6.941406 -0.203125 -6.109375 C -0.128906 -5.648438 0.488281 -5.722656 1.65625 -6.328125 C 2.820312 -6.929688 3.90625 -7.867188 4.90625 -9.140625 C 5.90625 -10.410156 6.410156 -10.816406 6.421875 -10.359375 C 6.429688 -9.910156 6.1875 -9.269531 5.6875 -8.4375 Z M 1.75 -13.75 C 1.6875 -13.6875 1.566406 -13.609375 1.390625 -13.515625 C 1.222656 -13.429688 1.039062 -13.351562 0.84375 -13.28125 C 0.65625 -13.21875 0.492188 -13.222656 0.359375 -13.296875 C 0.234375 -13.378906 0.203125 -13.566406 0.265625 -13.859375 C 0.378906 -14.367188 0.503906 -14.820312 0.640625 -15.21875 C 0.773438 -15.625 0.972656 -16.078125 1.234375 -16.578125 C 1.410156 -16.796875 1.617188 -16.929688 1.859375 -16.984375 C 2.097656 -17.035156 2.3125 -17.003906 2.5 -16.890625 C 2.6875 -16.785156 2.765625 -16.601562 2.734375 -16.34375 C 2.617188 -15.375 2.289062 -14.507812 1.75 -13.75 Z M 1.75 -13.75 "/></g></g><g transform="translate(140.308062, 222.2289)"><g><path d="M 9.484375 -10.140625 C 8.222656 -8.054688 6.921875 -6.457031 5.578125 -5.34375 C 4.234375 -4.238281 2.691406 -3.695312 0.953125 -3.71875 C -0.785156 -3.738281 -1.671875 -4.765625 -1.703125 -6.796875 C -1.648438 -7.816406 -1.519531 -8.835938 -1.3125 -9.859375 C -0.769531 -12.210938 -0.222656 -14.550781 0.328125 -16.875 C 0.492188 -17.71875 0.679688 -18.5625 0.890625 -19.40625 C 0.941406 -19.59375 0.988281 -19.78125 1.03125 -19.96875 C 1.101562 -20.269531 1.179688 -20.582031 1.265625 -20.90625 C 1.367188 -21.445312 1.125 -21.679688 0.53125 -21.609375 C 0.195312 -21.554688 -0.128906 -21.503906 -0.453125 -21.453125 C -0.597656 -21.421875 -0.765625 -21.390625 -0.953125 -21.359375 C -1.128906 -21.316406 -1.304688 -21.269531 -1.484375 -21.21875 C -1.773438 -21.132812 -2.066406 -21.066406 -2.359375 -21.015625 C -2.660156 -20.972656 -2.953125 -21.007812 -3.234375 -21.125 C -3.304688 -21.132812 -3.367188 -21.171875 -3.421875 -21.234375 C -3.472656 -21.296875 -3.503906 -21.367188 -3.515625 -21.453125 C -3.503906 -21.492188 -3.476562 -21.550781 -3.4375 -21.625 C -3.394531 -21.695312 -3.332031 -21.753906 -3.25 -21.796875 C -3.019531 -21.941406 -2.765625 -22.054688 -2.484375 -22.140625 C -1.773438 -22.296875 -1.070312 -22.4375 -0.375 -22.5625 C -0.09375 -22.613281 0.148438 -22.65625 0.359375 -22.6875 C 0.816406 -22.757812 1.15625 -22.832031 1.375 -22.90625 C 1.601562 -22.976562 1.765625 -23.128906 1.859375 -23.359375 C 1.960938 -23.585938 2.070312 -23.929688 2.1875 -24.390625 C 2.257812 -24.640625 2.351562 -24.914062 2.46875 -25.21875 C 2.707031 -26.09375 2.953125 -26.984375 3.203125 -27.890625 C 3.304688 -28.296875 3.421875 -28.695312 3.546875 -29.09375 C 3.648438 -29.46875 3.847656 -29.78125 4.140625 -30.03125 C 4.421875 -30.238281 4.691406 -30.273438 4.953125 -30.140625 C 5.035156 -30.097656 5.101562 -30.023438 5.15625 -29.921875 C 5.21875 -29.828125 5.253906 -29.738281 5.265625 -29.65625 C 5.335938 -29.207031 5.289062 -28.75 5.125 -28.28125 C 5.09375 -28.1875 5.0625 -28.066406 5.03125 -27.921875 C 4.945312 -27.484375 4.859375 -27.035156 4.765625 -26.578125 C 4.546875 -25.742188 4.351562 -24.890625 4.1875 -24.015625 C 4.125 -23.847656 4.140625 -23.710938 4.234375 -23.609375 C 4.335938 -23.503906 4.460938 -23.460938 4.609375 -23.484375 C 5.429688 -23.585938 6.238281 -23.703125 7.03125 -23.828125 C 7.4375 -23.898438 7.835938 -23.96875 8.234375 -24.03125 C 9.503906 -24.21875 10.046875 -24.128906 9.859375 -23.765625 C 9.710938 -23.523438 9.539062 -23.375 9.34375 -23.3125 C 9.15625 -23.257812 8.953125 -23.234375 8.734375 -23.234375 C 8.597656 -23.210938 8.46875 -23.191406 8.34375 -23.171875 C 7.0625 -22.867188 5.785156 -22.609375 4.515625 -22.390625 C 3.929688 -22.285156 3.582031 -21.953125 3.46875 -21.390625 C 3.351562 -20.859375 3.234375 -20.316406 3.109375 -19.765625 C 2.921875 -19.046875 2.757812 -18.351562 2.625 -17.6875 C 2.46875 -17.050781 2.304688 -16.398438 2.140625 -15.734375 C 1.734375 -14.066406 1.351562 -12.40625 1 -10.75 C 0.78125 -9.675781 0.648438 -8.585938 0.609375 -7.484375 C 0.429688 -5.472656 1.296875 -4.859375 3.203125 -5.640625 C 5.066406 -6.410156 6.878906 -8.132812 8.640625 -10.8125 C 9.453125 -11.570312 9.734375 -11.347656 9.484375 -10.140625 Z M 9.484375 -10.140625 "/></g></g><g transform="translate(150.163285, 220.628178)"><g><path d="M 11.15625 -10.875 C 11.457031 -10.769531 11.535156 -10.398438 11.390625 -9.765625 C 11.140625 -9.265625 10.851562 -8.789062 10.53125 -8.34375 C 10.207031 -7.90625 9.835938 -7.492188 9.421875 -7.109375 C 9.390625 -7.109375 9.378906 -7.097656 9.390625 -7.078125 C 9.128906 -6.828125 8.835938 -6.597656 8.515625 -6.390625 C 5.921875 -4.941406 4.421875 -5.296875 4.015625 -7.453125 C 3.046875 -6.296875 2.390625 -5.578125 2.046875 -5.296875 C 1.222656 -4.609375 0.269531 -4.210938 -0.8125 -4.109375 C -1.601562 -4.003906 -2.175781 -4.144531 -2.53125 -4.53125 C -2.882812 -4.925781 -2.957031 -5.523438 -2.75 -6.328125 C -2.425781 -7.578125 -1.863281 -8.734375 -1.0625 -9.796875 C -0.132812 -10.992188 0.953125 -12.007812 2.203125 -12.84375 C 2.859375 -13.320312 3.582031 -13.582031 4.375 -13.625 C 5.175781 -13.707031 5.722656 -13.34375 6.015625 -12.53125 C 6.117188 -12.28125 6.09375 -12.039062 5.9375 -11.8125 C 5.71875 -11.539062 5.429688 -11.4375 5.078125 -11.5 C 5.054688 -11.5 5.019531 -11.5 4.96875 -11.5 C 4.925781 -11.507812 4.890625 -11.523438 4.859375 -11.546875 C 4.460938 -11.960938 4.097656 -12.101562 3.765625 -11.96875 C 3.429688 -11.832031 3.09375 -11.613281 2.75 -11.3125 C 1.132812 -9.988281 0.0507812 -8.328125 -0.5 -6.328125 C -0.539062 -6.234375 -0.554688 -6.132812 -0.546875 -6.03125 C -0.546875 -5.9375 -0.503906 -5.863281 -0.421875 -5.8125 C -0.210938 -5.78125 0.0078125 -5.832031 0.25 -5.96875 C 0.488281 -6.113281 0.71875 -6.300781 0.9375 -6.53125 C 1.164062 -6.769531 1.359375 -6.960938 1.515625 -7.109375 C 1.535156 -7.148438 1.546875 -7.171875 1.546875 -7.171875 C 2.273438 -8.015625 2.984375 -8.875 3.671875 -9.75 C 3.960938 -10.1875 4.378906 -10.472656 4.921875 -10.609375 C 5.679688 -10.734375 6.046875 -10.445312 6.015625 -9.75 C 5.992188 -9.476562 5.960938 -9.207031 5.921875 -8.9375 C 5.796875 -7.789062 5.890625 -7.144531 6.203125 -7 C 6.515625 -6.851562 6.9375 -6.921875 7.46875 -7.203125 C 8.007812 -7.492188 8.523438 -7.953125 9.015625 -8.578125 C 9.503906 -9.210938 9.910156 -9.78125 10.234375 -10.28125 C 10.554688 -10.789062 10.863281 -10.988281 11.15625 -10.875 Z M 11.15625 -10.875 "/></g></g><g transform="translate(161.666829, 218.75973)"><g><path d="M 16.734375 -11.65625 C 17.085938 -11.957031 17.390625 -12.066406 17.640625 -11.984375 C 17.898438 -11.898438 17.875 -11.523438 17.5625 -10.859375 C 17.15625 -10.097656 16.359375 -9.222656 15.171875 -8.234375 C 13.992188 -7.242188 12.894531 -6.710938 11.875 -6.640625 C 10.851562 -6.578125 10.4375 -7.273438 10.625 -8.734375 C 10.820312 -10.203125 10.925781 -11.019531 10.9375 -11.1875 C 10.945312 -11.363281 10.898438 -11.453125 10.796875 -11.453125 C 10.691406 -11.460938 10.476562 -11.3125 10.15625 -11 C 9.238281 -10.113281 8.347656 -9.191406 7.484375 -8.234375 C 7.097656 -7.859375 6.726562 -7.453125 6.375 -7.015625 C 6.15625 -6.742188 5.929688 -6.472656 5.703125 -6.203125 C 5.703125 -6.203125 5.691406 -6.1875 5.671875 -6.15625 C 5.421875 -5.8125 5.078125 -5.546875 4.640625 -5.359375 C 4.460938 -5.273438 4.257812 -5.222656 4.03125 -5.203125 C 3.8125 -5.179688 3.609375 -5.238281 3.421875 -5.375 C 3.234375 -5.519531 3.144531 -5.6875 3.15625 -5.875 C 3.175781 -6.070312 3.273438 -6.378906 3.453125 -6.796875 C 3.640625 -7.222656 3.835938 -7.6875 4.046875 -8.1875 C 4.265625 -8.695312 4.382812 -9.003906 4.40625 -9.109375 C 4.425781 -9.222656 4.394531 -9.328125 4.3125 -9.421875 C 4.207031 -9.515625 4.109375 -9.535156 4.015625 -9.484375 C 3.929688 -9.429688 3.601562 -9.125 3.03125 -8.5625 C 2.46875 -8 1.707031 -7.21875 0.75 -6.21875 C 0.300781 -5.75 -0.125 -5.269531 -0.53125 -4.78125 C -0.644531 -4.632812 -0.769531 -4.5 -0.90625 -4.375 C -1.207031 -4.019531 -1.578125 -3.796875 -2.015625 -3.703125 C -2.304688 -3.628906 -2.546875 -3.660156 -2.734375 -3.796875 C -2.921875 -3.929688 -2.976562 -4.148438 -2.90625 -4.453125 C -2.875 -4.671875 -2.820312 -4.867188 -2.75 -5.046875 C -2.695312 -5.140625 -2.671875 -5.226562 -2.671875 -5.3125 C -2.054688 -7.3125 -1.453125 -9.320312 -0.859375 -11.34375 C -0.847656 -11.382812 -0.835938 -11.445312 -0.828125 -11.53125 C -0.742188 -11.738281 -0.664062 -11.945312 -0.59375 -12.15625 C -0.363281 -12.5 -0.0507812 -12.648438 0.34375 -12.609375 C 0.800781 -12.554688 1.007812 -12.328125 0.96875 -11.921875 C 0.851562 -11.304688 0.742188 -10.703125 0.640625 -10.109375 C 0.578125 -9.835938 0.515625 -9.566406 0.453125 -9.296875 C 0.359375 -8.816406 0.347656 -8.515625 0.421875 -8.390625 C 0.503906 -8.273438 0.78125 -8.410156 1.25 -8.796875 C 1.550781 -9.097656 1.851562 -9.382812 2.15625 -9.65625 C 2.507812 -10 2.863281 -10.320312 3.21875 -10.625 C 3.738281 -11.070312 4.285156 -11.476562 4.859375 -11.84375 C 5.140625 -12.007812 5.429688 -12.148438 5.734375 -12.265625 C 6.046875 -12.378906 6.359375 -12.359375 6.671875 -12.203125 C 6.910156 -12.054688 7.03125 -11.867188 7.03125 -11.640625 C 7.039062 -11.421875 7.015625 -11.203125 6.953125 -10.984375 C 6.859375 -10.578125 6.832031 -10.328125 6.875 -10.234375 C 6.914062 -10.140625 7.007812 -10.132812 7.15625 -10.21875 C 7.300781 -10.3125 7.546875 -10.503906 7.890625 -10.796875 C 8.234375 -11.085938 8.601562 -11.40625 9 -11.75 C 9.488281 -12.195312 10.015625 -12.640625 10.578125 -13.078125 C 11.035156 -13.484375 11.546875 -13.769531 12.109375 -13.9375 C 12.898438 -14.125 13.28125 -13.851562 13.25 -13.125 C 13.21875 -12.40625 13.070312 -11.523438 12.8125 -10.484375 C 12.550781 -9.453125 12.601562 -8.851562 12.96875 -8.6875 C 13.34375 -8.53125 14.023438 -8.953125 15.015625 -9.953125 C 16.015625 -10.953125 16.585938 -11.519531 16.734375 -11.65625 Z M 16.734375 -11.65625 "/></g></g><g transform="translate(180.023917, 215.778103)"><g/></g><g transform="translate(193.141081, 213.647565)"><g><path d="M 81.5 -64.640625 C 81.832031 -64.421875 82.144531 -64.171875 82.4375 -63.890625 C 82.738281 -63.617188 82.960938 -63.269531 83.109375 -62.84375 C 83.273438 -62.363281 83.160156 -61.96875 82.765625 -61.65625 C 82.535156 -61.488281 82.289062 -61.429688 82.03125 -61.484375 C 81.769531 -61.535156 81.566406 -61.6875 81.421875 -61.9375 C 81.023438 -62.65625 80.507812 -63.191406 79.875 -63.546875 C 79.238281 -63.910156 78.5625 -64.207031 77.84375 -64.4375 C 76.269531 -64.96875 74.671875 -65.34375 73.046875 -65.5625 C 71.421875 -65.789062 69.789062 -65.957031 68.15625 -66.0625 C 65.425781 -66.1875 61.863281 -65.976562 57.46875 -65.4375 C 53.082031 -64.90625 48.234375 -64.054688 42.921875 -62.890625 C 37.609375 -61.722656 32.21875 -60.257812 26.75 -58.5 C 21.28125 -56.738281 16.097656 -54.695312 11.203125 -52.375 C 6.316406 -50.0625 2.113281 -47.476562 -1.40625 -44.625 C -4.925781 -41.78125 -7.394531 -38.695312 -8.8125 -35.375 C -9.976562 -32.5 -9.847656 -29.691406 -8.421875 -26.953125 C -7.410156 -25.066406 -6.117188 -23.414062 -4.546875 -22 C -2.222656 -19.863281 0.273438 -17.972656 2.953125 -16.328125 C 5.234375 -14.847656 7.523438 -13.367188 9.828125 -11.890625 C 12.066406 -10.484375 14.3125 -9.039062 16.5625 -7.5625 C 19.082031 -5.914062 21.5625 -4.226562 24 -2.5 C 24.238281 -2.332031 24.476562 -2.179688 24.71875 -2.046875 C 26.03125 -1.160156 27.226562 -0.144531 28.3125 1 C 29.4375 2.34375 29.785156 3.460938 29.359375 4.359375 C 28.941406 5.265625 27.988281 5.988281 26.5 6.53125 C 25.007812 7.070312 23.238281 7.453125 21.1875 7.671875 C 19.132812 7.898438 17.039062 7.976562 14.90625 7.90625 C 12.769531 7.84375 10.859375 7.660156 9.171875 7.359375 C 7.484375 7.066406 6.265625 6.679688 5.515625 6.203125 C 3.992188 5.203125 3.703125 3.921875 4.640625 2.359375 C 5.640625 0.765625 6.976562 -0.492188 8.65625 -1.421875 C 11.0625 -2.835938 13.65625 -3.34375 16.4375 -2.9375 C 16.976562 -2.832031 17.503906 -2.664062 18.015625 -2.4375 C 18.066406 -2.414062 18.113281 -2.394531 18.15625 -2.375 C 18.300781 -2.332031 18.40625 -2.242188 18.46875 -2.109375 C 18.539062 -1.972656 18.546875 -1.816406 18.484375 -1.640625 C 18.304688 -1.347656 18.054688 -1.234375 17.734375 -1.296875 C 17.429688 -1.347656 17.140625 -1.429688 16.859375 -1.546875 C 14.878906 -2.171875 12.96875 -2.054688 11.125 -1.203125 C 9.28125 -0.359375 7.820312 0.957031 6.75 2.75 C 6.300781 3.601562 6.378906 4.273438 6.984375 4.765625 C 7.597656 5.253906 8.472656 5.609375 9.609375 5.828125 C 10.742188 6.054688 11.867188 6.195312 12.984375 6.25 C 14.109375 6.300781 14.941406 6.320312 15.484375 6.3125 C 15.585938 6.300781 15.664062 6.300781 15.71875 6.3125 C 15.820312 6.300781 15.953125 6.296875 16.109375 6.296875 C 16.804688 6.335938 17.765625 6.34375 18.984375 6.3125 C 20.203125 6.289062 21.445312 6.207031 22.71875 6.0625 C 23.988281 5.914062 25.050781 5.65625 25.90625 5.28125 C 26.769531 4.90625 27.207031 4.378906 27.21875 3.703125 C 27.226562 3.023438 26.570312 2.128906 25.25 1.015625 C 23.820312 -0.160156 22.34375 -1.296875 20.8125 -2.390625 C 16.976562 -5.054688 13.070312 -7.609375 9.09375 -10.046875 C 7.675781 -10.960938 6.242188 -11.878906 4.796875 -12.796875 C 2.421875 -14.335938 0.0664062 -15.925781 -2.265625 -17.5625 C -4.421875 -19.0625 -6.382812 -20.78125 -8.15625 -22.71875 C -9.425781 -24.125 -10.414062 -25.703125 -11.125 -27.453125 C -12.21875 -30.328125 -12.113281 -33.164062 -10.8125 -35.96875 C -9.394531 -39.09375 -7.082031 -42.03125 -3.875 -44.78125 C -0.664062 -47.53125 3.160156 -50.054688 7.609375 -52.359375 C 12.054688 -54.660156 16.859375 -56.71875 22.015625 -58.53125 C 27.171875 -60.351562 32.425781 -61.90625 37.78125 -63.1875 C 43.132812 -64.46875 48.304688 -65.445312 53.296875 -66.125 C 58.285156 -66.800781 62.84375 -67.15625 66.96875 -67.1875 C 71.101562 -67.226562 74.554688 -66.90625 77.328125 -66.21875 C 78.773438 -65.90625 80.164062 -65.378906 81.5 -64.640625 Z M 81.5 -64.640625 "/></g></g><g transform="translate(218.716079, 209.493578)"><g><path d="M 12.78125 -10.375 C 12.59375 -10.144531 12.398438 -9.945312 12.203125 -9.78125 C 11.535156 -9.1875 10.925781 -8.707031 10.375 -8.34375 C 9.820312 -7.976562 9.160156 -7.59375 8.390625 -7.1875 C 7.253906 -6.632812 6.472656 -6.585938 6.046875 -7.046875 C 5.617188 -7.503906 5.441406 -8.21875 5.515625 -9.1875 C 5.628906 -10.570312 5.660156 -11.570312 5.609375 -12.1875 C 5.566406 -12.8125 5.332031 -12.988281 4.90625 -12.71875 C 4.476562 -12.445312 3.75 -11.679688 2.71875 -10.421875 C 1.28125 -8.703125 0.117188 -6.8125 -0.765625 -4.75 C -0.890625 -4.476562 -1.039062 -4.242188 -1.21875 -4.046875 C -1.40625 -3.847656 -1.664062 -3.722656 -2 -3.671875 C -2.300781 -3.617188 -2.535156 -3.660156 -2.703125 -3.796875 C -2.878906 -3.941406 -2.925781 -4.164062 -2.84375 -4.46875 C -2.40625 -6.070312 -1.945312 -7.671875 -1.46875 -9.265625 C -0.65625 -12.046875 0.132812 -14.800781 0.90625 -17.53125 C 1.488281 -19.582031 2.0625 -21.628906 2.625 -23.671875 C 2.96875 -24.890625 3.300781 -26.101562 3.625 -27.3125 C 3.65625 -27.40625 3.691406 -27.507812 3.734375 -27.625 C 3.753906 -27.757812 3.785156 -27.894531 3.828125 -28.03125 C 3.878906 -28.164062 3.9375 -28.3125 4 -28.46875 C 4.039062 -28.613281 4.148438 -28.742188 4.328125 -28.859375 C 4.503906 -28.972656 4.6875 -29.054688 4.875 -29.109375 C 5.070312 -29.160156 5.226562 -29.175781 5.34375 -29.15625 C 5.5 -29.0625 5.597656 -28.957031 5.640625 -28.84375 C 5.679688 -28.738281 5.679688 -28.617188 5.640625 -28.484375 C 5.617188 -28.453125 5.613281 -28.414062 5.625 -28.375 C 5.5 -27.632812 5.363281 -26.925781 5.21875 -26.25 C 4.320312 -22.476562 3.28125 -18.734375 2.09375 -15.015625 C 2.007812 -14.765625 1.910156 -14.460938 1.796875 -14.109375 C 1.609375 -13.597656 1.441406 -13.097656 1.296875 -12.609375 C 1.148438 -12.128906 1.125 -11.820312 1.21875 -11.6875 C 1.320312 -11.5625 1.648438 -11.734375 2.203125 -12.203125 C 2.359375 -12.367188 2.503906 -12.53125 2.640625 -12.6875 C 3.078125 -13.09375 3.503906 -13.476562 3.921875 -13.84375 C 4.296875 -14.1875 4.738281 -14.410156 5.25 -14.515625 C 6.445312 -14.796875 7.21875 -14.351562 7.5625 -13.1875 C 7.695312 -12.726562 7.753906 -12.257812 7.734375 -11.78125 C 7.722656 -11.300781 7.6875 -10.828125 7.625 -10.359375 C 7.625 -10.234375 7.625 -10.101562 7.625 -9.96875 C 7.550781 -9.144531 7.679688 -8.695312 8.015625 -8.625 C 8.359375 -8.5625 8.789062 -8.703125 9.3125 -9.046875 C 9.84375 -9.390625 10.378906 -9.773438 10.921875 -10.203125 C 11.285156 -10.492188 11.609375 -10.734375 11.890625 -10.921875 C 12.171875 -11.117188 12.390625 -11.222656 12.546875 -11.234375 C 12.835938 -11.234375 12.984375 -11.140625 12.984375 -10.953125 C 12.984375 -10.765625 12.914062 -10.570312 12.78125 -10.375 Z M 12.78125 -10.375 "/></g></g><g transform="translate(231.954697, 207.343312)"><g><path d="M 6.59375 -12 C 6.625 -11.1875 6.332031 -10.609375 5.71875 -10.265625 C 5.113281 -9.921875 4.851562 -10.203125 4.9375 -11.109375 C 5.019531 -12.023438 4.585938 -12.1875 3.640625 -11.59375 C 2.691406 -11 1.945312 -10.3125 1.40625 -9.53125 C 0.550781 -8.332031 -0.171875 -7.066406 -0.765625 -5.734375 C -0.835938 -5.609375 -0.890625 -5.507812 -0.921875 -5.4375 C -1.097656 -5.070312 -1.273438 -4.710938 -1.453125 -4.359375 C -1.566406 -4.128906 -1.722656 -3.972656 -1.921875 -3.890625 C -2.117188 -3.816406 -2.320312 -3.773438 -2.53125 -3.765625 C -2.738281 -3.765625 -2.90625 -3.816406 -3.03125 -3.921875 C -3.15625 -4.023438 -3.1875 -4.171875 -3.125 -4.359375 C -3.050781 -4.703125 -2.953125 -5.046875 -2.828125 -5.390625 C -2.109375 -7.492188 -1.367188 -9.601562 -0.609375 -11.71875 C -0.585938 -11.738281 -0.582031 -11.765625 -0.59375 -11.796875 C -0.476562 -12.128906 -0.34375 -12.441406 -0.1875 -12.734375 C 0.0078125 -13.015625 0.257812 -13.15625 0.5625 -13.15625 C 0.863281 -13.15625 1.09375 -13.015625 1.25 -12.734375 C 1.445312 -12.347656 1.597656 -12.132812 1.703125 -12.09375 C 1.804688 -12.050781 2.003906 -12.125 2.296875 -12.3125 C 2.960938 -12.6875 3.613281 -12.976562 4.25 -13.1875 C 4.894531 -13.394531 5.441406 -13.453125 5.890625 -13.359375 C 6.335938 -13.265625 6.570312 -12.8125 6.59375 -12 Z M 6.59375 -12 "/></g></g><g transform="translate(240.63007, 205.934226)"><g><path d="M 8.8125 -8.265625 C 8.25 -7.492188 7.5625 -6.800781 6.75 -6.1875 C 5.9375 -5.582031 5.238281 -5.160156 4.65625 -4.921875 C 4.070312 -4.679688 3.46875 -4.492188 2.84375 -4.359375 C 1.820312 -4.148438 0.859375 -4.132812 -0.046875 -4.3125 C -1.546875 -4.664062 -2.207031 -5.675781 -2.03125 -7.34375 C -1.851562 -8.78125 -1.207031 -9.984375 -0.09375 -10.953125 C 1.019531 -11.921875 2.238281 -12.503906 3.5625 -12.703125 C 3.5625 -12.703125 3.570312 -12.703125 3.59375 -12.703125 C 3.925781 -12.785156 4.253906 -12.816406 4.578125 -12.796875 C 5.109375 -12.691406 5.476562 -12.441406 5.6875 -12.046875 C 5.894531 -11.660156 5.878906 -11.1875 5.640625 -10.625 C 5.078125 -9.375 4.171875 -8.585938 2.921875 -8.265625 C 2.085938 -8.046875 1.265625 -7.957031 0.453125 -8 C 0.304688 -7.988281 0.179688 -7.921875 0.078125 -7.796875 C -0.0234375 -7.679688 -0.078125 -7.539062 -0.078125 -7.375 C -0.148438 -6.34375 0.257812 -5.757812 1.15625 -5.625 C 2.257812 -5.425781 3.34375 -5.601562 4.40625 -6.15625 C 5.632812 -6.769531 6.738281 -7.726562 7.71875 -9.03125 C 8.707031 -10.34375 9.296875 -10.972656 9.484375 -10.921875 C 9.679688 -10.878906 9.773438 -10.675781 9.765625 -10.3125 C 9.691406 -9.71875 9.375 -9.035156 8.8125 -8.265625 Z M 0.96875 -9.859375 C 0.90625 -9.765625 0.867188 -9.664062 0.859375 -9.5625 C 0.847656 -9.457031 0.898438 -9.378906 1.015625 -9.328125 C 1.453125 -9.160156 1.898438 -9.144531 2.359375 -9.28125 C 2.828125 -9.425781 3.203125 -9.671875 3.484375 -10.015625 C 3.773438 -10.367188 3.859375 -10.75 3.734375 -11.15625 C 3.679688 -11.3125 3.585938 -11.398438 3.453125 -11.421875 C 3.316406 -11.441406 3.191406 -11.425781 3.078125 -11.375 C 2.234375 -11.082031 1.53125 -10.578125 0.96875 -9.859375 Z M 0.96875 -9.859375 "/></g></g><g transform="translate(250.728203, 204.294049)"><g><path d="M 6.984375 -10.15625 C 5.253906 -9.175781 4.019531 -8.40625 3.28125 -7.84375 C 2.738281 -7.457031 2.4375 -7.160156 2.375 -6.953125 C 2.320312 -6.753906 2.445312 -6.421875 2.75 -5.953125 C 2.757812 -5.929688 2.785156 -5.898438 2.828125 -5.859375 C 3.179688 -5.273438 3.4375 -4.660156 3.59375 -4.015625 C 3.882812 -2.703125 2.898438 -1.585938 0.640625 -0.671875 C -1.609375 0.242188 -3.171875 0.515625 -4.046875 0.140625 C -4.921875 -0.222656 -5.265625 -0.8125 -5.078125 -1.625 C -4.898438 -2.445312 -4.234375 -3.351562 -3.078125 -4.34375 C -1.921875 -5.34375 -1.148438 -6.050781 -0.765625 -6.46875 C -0.390625 -6.882812 -0.328125 -7.296875 -0.578125 -7.703125 C -0.648438 -7.828125 -0.738281 -7.960938 -0.84375 -8.109375 C -1.039062 -8.453125 -1.253906 -8.796875 -1.484375 -9.140625 C -1.898438 -9.773438 -2.140625 -10.4375 -2.203125 -11.125 C -2.273438 -11.8125 -2.117188 -12.421875 -1.734375 -12.953125 C -1.347656 -13.484375 -0.679688 -13.84375 0.265625 -14.03125 C 0.804688 -14.132812 1.300781 -14.140625 1.75 -14.046875 C 2.207031 -13.953125 2.601562 -13.703125 2.9375 -13.296875 C 3.195312 -13.015625 3.175781 -12.71875 2.875 -12.40625 C 2.6875 -12.1875 2.457031 -12.117188 2.1875 -12.203125 C 2.019531 -12.253906 1.847656 -12.328125 1.671875 -12.421875 C 1.660156 -12.460938 1.65625 -12.484375 1.65625 -12.484375 C 1.582031 -12.515625 1.515625 -12.550781 1.453125 -12.59375 C 1.359375 -12.6875 1.265625 -12.757812 1.171875 -12.8125 C 0.847656 -12.96875 0.535156 -12.976562 0.234375 -12.84375 C -0.0546875 -12.71875 -0.242188 -12.445312 -0.328125 -12.03125 C -0.390625 -11.71875 -0.394531 -11.40625 -0.34375 -11.09375 C -0.25 -10.707031 -0.0976562 -10.347656 0.109375 -10.015625 C 0.234375 -9.816406 0.351562 -9.628906 0.46875 -9.453125 C 0.75 -8.972656 0.96875 -8.644531 1.125 -8.46875 C 1.289062 -8.300781 1.457031 -8.25 1.625 -8.3125 C 1.800781 -8.375 3.34375 -9.226562 6.25 -10.875 C 6.90625 -11.21875 7.148438 -10.976562 6.984375 -10.15625 Z M 0.515625 -2.3125 C 1.285156 -2.726562 1.546875 -3.328125 1.296875 -4.109375 C 1.285156 -4.171875 1.257812 -4.238281 1.21875 -4.3125 C 1.101562 -4.738281 0.957031 -5.054688 0.78125 -5.265625 C 0.601562 -5.472656 0.289062 -5.414062 -0.15625 -5.09375 C -1.238281 -4.21875 -2.21875 -3.238281 -3.09375 -2.15625 C -3.15625 -2.0625 -3.210938 -1.972656 -3.265625 -1.890625 C -3.265625 -1.890625 -3.269531 -1.875 -3.28125 -1.84375 C -3.332031 -1.738281 -3.328125 -1.628906 -3.265625 -1.515625 C -3.203125 -1.398438 -3.085938 -1.359375 -2.921875 -1.390625 C -1.691406 -1.398438 -0.546875 -1.707031 0.515625 -2.3125 Z M 0.515625 -2.3125 "/></g></g><g transform="translate(258.414583, 203.045599)"><g><path d="M 9.484375 -10.140625 C 8.222656 -8.054688 6.921875 -6.457031 5.578125 -5.34375 C 4.234375 -4.238281 2.691406 -3.695312 0.953125 -3.71875 C -0.785156 -3.738281 -1.671875 -4.765625 -1.703125 -6.796875 C -1.648438 -7.816406 -1.519531 -8.835938 -1.3125 -9.859375 C -0.769531 -12.210938 -0.222656 -14.550781 0.328125 -16.875 C 0.492188 -17.71875 0.679688 -18.5625 0.890625 -19.40625 C 0.941406 -19.59375 0.988281 -19.78125 1.03125 -19.96875 C 1.101562 -20.269531 1.179688 -20.582031 1.265625 -20.90625 C 1.367188 -21.445312 1.125 -21.679688 0.53125 -21.609375 C 0.195312 -21.554688 -0.128906 -21.503906 -0.453125 -21.453125 C -0.597656 -21.421875 -0.765625 -21.390625 -0.953125 -21.359375 C -1.128906 -21.316406 -1.304688 -21.269531 -1.484375 -21.21875 C -1.773438 -21.132812 -2.066406 -21.066406 -2.359375 -21.015625 C -2.660156 -20.972656 -2.953125 -21.007812 -3.234375 -21.125 C -3.304688 -21.132812 -3.367188 -21.171875 -3.421875 -21.234375 C -3.472656 -21.296875 -3.503906 -21.367188 -3.515625 -21.453125 C -3.503906 -21.492188 -3.476562 -21.550781 -3.4375 -21.625 C -3.394531 -21.695312 -3.332031 -21.753906 -3.25 -21.796875 C -3.019531 -21.941406 -2.765625 -22.054688 -2.484375 -22.140625 C -1.773438 -22.296875 -1.070312 -22.4375 -0.375 -22.5625 C -0.09375 -22.613281 0.148438 -22.65625 0.359375 -22.6875 C 0.816406 -22.757812 1.15625 -22.832031 1.375 -22.90625 C 1.601562 -22.976562 1.765625 -23.128906 1.859375 -23.359375 C 1.960938 -23.585938 2.070312 -23.929688 2.1875 -24.390625 C 2.257812 -24.640625 2.351562 -24.914062 2.46875 -25.21875 C 2.707031 -26.09375 2.953125 -26.984375 3.203125 -27.890625 C 3.304688 -28.296875 3.421875 -28.695312 3.546875 -29.09375 C 3.648438 -29.46875 3.847656 -29.78125 4.140625 -30.03125 C 4.421875 -30.238281 4.691406 -30.273438 4.953125 -30.140625 C 5.035156 -30.097656 5.101562 -30.023438 5.15625 -29.921875 C 5.21875 -29.828125 5.253906 -29.738281 5.265625 -29.65625 C 5.335938 -29.207031 5.289062 -28.75 5.125 -28.28125 C 5.09375 -28.1875 5.0625 -28.066406 5.03125 -27.921875 C 4.945312 -27.484375 4.859375 -27.035156 4.765625 -26.578125 C 4.546875 -25.742188 4.351562 -24.890625 4.1875 -24.015625 C 4.125 -23.847656 4.140625 -23.710938 4.234375 -23.609375 C 4.335938 -23.503906 4.460938 -23.460938 4.609375 -23.484375 C 5.429688 -23.585938 6.238281 -23.703125 7.03125 -23.828125 C 7.4375 -23.898438 7.835938 -23.96875 8.234375 -24.03125 C 9.503906 -24.21875 10.046875 -24.128906 9.859375 -23.765625 C 9.710938 -23.523438 9.539062 -23.375 9.34375 -23.3125 C 9.15625 -23.257812 8.953125 -23.234375 8.734375 -23.234375 C 8.597656 -23.210938 8.46875 -23.191406 8.34375 -23.171875 C 7.0625 -22.867188 5.785156 -22.609375 4.515625 -22.390625 C 3.929688 -22.285156 3.582031 -21.953125 3.46875 -21.390625 C 3.351562 -20.859375 3.234375 -20.316406 3.109375 -19.765625 C 2.921875 -19.046875 2.757812 -18.351562 2.625 -17.6875 C 2.46875 -17.050781 2.304688 -16.398438 2.140625 -15.734375 C 1.734375 -14.066406 1.351562 -12.40625 1 -10.75 C 0.78125 -9.675781 0.648438 -8.585938 0.609375 -7.484375 C 0.429688 -5.472656 1.296875 -4.859375 3.203125 -5.640625 C 5.066406 -6.410156 6.878906 -8.132812 8.640625 -10.8125 C 9.453125 -11.570312 9.734375 -11.347656 9.484375 -10.140625 Z M 9.484375 -10.140625 "/></g></g><g transform="translate(268.269807, 201.444877)"><g><path d="M 12.78125 -10.375 C 12.59375 -10.144531 12.398438 -9.945312 12.203125 -9.78125 C 11.535156 -9.1875 10.925781 -8.707031 10.375 -8.34375 C 9.820312 -7.976562 9.160156 -7.59375 8.390625 -7.1875 C 7.253906 -6.632812 6.472656 -6.585938 6.046875 -7.046875 C 5.617188 -7.503906 5.441406 -8.21875 5.515625 -9.1875 C 5.628906 -10.570312 5.660156 -11.570312 5.609375 -12.1875 C 5.566406 -12.8125 5.332031 -12.988281 4.90625 -12.71875 C 4.476562 -12.445312 3.75 -11.679688 2.71875 -10.421875 C 1.28125 -8.703125 0.117188 -6.8125 -0.765625 -4.75 C -0.890625 -4.476562 -1.039062 -4.242188 -1.21875 -4.046875 C -1.40625 -3.847656 -1.664062 -3.722656 -2 -3.671875 C -2.300781 -3.617188 -2.535156 -3.660156 -2.703125 -3.796875 C -2.878906 -3.941406 -2.925781 -4.164062 -2.84375 -4.46875 C -2.40625 -6.070312 -1.945312 -7.671875 -1.46875 -9.265625 C -0.65625 -12.046875 0.132812 -14.800781 0.90625 -17.53125 C 1.488281 -19.582031 2.0625 -21.628906 2.625 -23.671875 C 2.96875 -24.890625 3.300781 -26.101562 3.625 -27.3125 C 3.65625 -27.40625 3.691406 -27.507812 3.734375 -27.625 C 3.753906 -27.757812 3.785156 -27.894531 3.828125 -28.03125 C 3.878906 -28.164062 3.9375 -28.3125 4 -28.46875 C 4.039062 -28.613281 4.148438 -28.742188 4.328125 -28.859375 C 4.503906 -28.972656 4.6875 -29.054688 4.875 -29.109375 C 5.070312 -29.160156 5.226562 -29.175781 5.34375 -29.15625 C 5.5 -29.0625 5.597656 -28.957031 5.640625 -28.84375 C 5.679688 -28.738281 5.679688 -28.617188 5.640625 -28.484375 C 5.617188 -28.453125 5.613281 -28.414062 5.625 -28.375 C 5.5 -27.632812 5.363281 -26.925781 5.21875 -26.25 C 4.320312 -22.476562 3.28125 -18.734375 2.09375 -15.015625 C 2.007812 -14.765625 1.910156 -14.460938 1.796875 -14.109375 C 1.609375 -13.597656 1.441406 -13.097656 1.296875 -12.609375 C 1.148438 -12.128906 1.125 -11.820312 1.21875 -11.6875 C 1.320312 -11.5625 1.648438 -11.734375 2.203125 -12.203125 C 2.359375 -12.367188 2.503906 -12.53125 2.640625 -12.6875 C 3.078125 -13.09375 3.503906 -13.476562 3.921875 -13.84375 C 4.296875 -14.1875 4.738281 -14.410156 5.25 -14.515625 C 6.445312 -14.796875 7.21875 -14.351562 7.5625 -13.1875 C 7.695312 -12.726562 7.753906 -12.257812 7.734375 -11.78125 C 7.722656 -11.300781 7.6875 -10.828125 7.625 -10.359375 C 7.625 -10.234375 7.625 -10.101562 7.625 -9.96875 C 7.550781 -9.144531 7.679688 -8.695312 8.015625 -8.625 C 8.359375 -8.5625 8.789062 -8.703125 9.3125 -9.046875 C 9.84375 -9.390625 10.378906 -9.773438 10.921875 -10.203125 C 11.285156 -10.492188 11.609375 -10.734375 11.890625 -10.921875 C 12.171875 -11.117188 12.390625 -11.222656 12.546875 -11.234375 C 12.835938 -11.234375 12.984375 -11.140625 12.984375 -10.953125 C 12.984375 -10.765625 12.914062 -10.570312 12.78125 -10.375 Z M 12.78125 -10.375 "/></g></g><g transform="translate(281.508425, 199.294611)"><g><path d="M 11.15625 -10.875 C 11.457031 -10.769531 11.535156 -10.398438 11.390625 -9.765625 C 11.140625 -9.265625 10.851562 -8.789062 10.53125 -8.34375 C 10.207031 -7.90625 9.835938 -7.492188 9.421875 -7.109375 C 9.390625 -7.109375 9.378906 -7.097656 9.390625 -7.078125 C 9.128906 -6.828125 8.835938 -6.597656 8.515625 -6.390625 C 5.921875 -4.941406 4.421875 -5.296875 4.015625 -7.453125 C 3.046875 -6.296875 2.390625 -5.578125 2.046875 -5.296875 C 1.222656 -4.609375 0.269531 -4.210938 -0.8125 -4.109375 C -1.601562 -4.003906 -2.175781 -4.144531 -2.53125 -4.53125 C -2.882812 -4.925781 -2.957031 -5.523438 -2.75 -6.328125 C -2.425781 -7.578125 -1.863281 -8.734375 -1.0625 -9.796875 C -0.132812 -10.992188 0.953125 -12.007812 2.203125 -12.84375 C 2.859375 -13.320312 3.582031 -13.582031 4.375 -13.625 C 5.175781 -13.707031 5.722656 -13.34375 6.015625 -12.53125 C 6.117188 -12.28125 6.09375 -12.039062 5.9375 -11.8125 C 5.71875 -11.539062 5.429688 -11.4375 5.078125 -11.5 C 5.054688 -11.5 5.019531 -11.5 4.96875 -11.5 C 4.925781 -11.507812 4.890625 -11.523438 4.859375 -11.546875 C 4.460938 -11.960938 4.097656 -12.101562 3.765625 -11.96875 C 3.429688 -11.832031 3.09375 -11.613281 2.75 -11.3125 C 1.132812 -9.988281 0.0507812 -8.328125 -0.5 -6.328125 C -0.539062 -6.234375 -0.554688 -6.132812 -0.546875 -6.03125 C -0.546875 -5.9375 -0.503906 -5.863281 -0.421875 -5.8125 C -0.210938 -5.78125 0.0078125 -5.832031 0.25 -5.96875 C 0.488281 -6.113281 0.71875 -6.300781 0.9375 -6.53125 C 1.164062 -6.769531 1.359375 -6.960938 1.515625 -7.109375 C 1.535156 -7.148438 1.546875 -7.171875 1.546875 -7.171875 C 2.273438 -8.015625 2.984375 -8.875 3.671875 -9.75 C 3.960938 -10.1875 4.378906 -10.472656 4.921875 -10.609375 C 5.679688 -10.734375 6.046875 -10.445312 6.015625 -9.75 C 5.992188 -9.476562 5.960938 -9.207031 5.921875 -8.9375 C 5.796875 -7.789062 5.890625 -7.144531 6.203125 -7 C 6.515625 -6.851562 6.9375 -6.921875 7.46875 -7.203125 C 8.007812 -7.492188 8.523438 -7.953125 9.015625 -8.578125 C 9.503906 -9.210938 9.910156 -9.78125 10.234375 -10.28125 C 10.554688 -10.789062 10.863281 -10.988281 11.15625 -10.875 Z M 11.15625 -10.875 "/></g></g></g></svg>