<svg xmlns="http://www.w3.org/2000/svg" xmlns:xlink="http://www.w3.org/1999/xlink" width="500" zoomAndPan="magnify" viewBox="0 0 375 225" height="300" preserveAspectRatio="xMidYMid meet" version="1.0"><defs><g/></defs><g fill="#000000" fill-opacity="1"><g transform="translate(46.578925, 161.83109)"><g><path d="M 108.15625 -47.59375 C 108.550781 -47.59375 108.875 -47.488281 109.125 -47.28125 C 109.375 -47.082031 109.457031 -46.863281 109.375 -46.625 C 109.269531 -46.40625 109.132812 -46.257812 108.96875 -46.1875 C 108.800781 -46.113281 108.613281 -46.078125 108.40625 -46.078125 C 108.164062 -46.035156 107.910156 -46.007812 107.640625 -46 C 103.941406 -45.507812 99.09375 -44.503906 93.09375 -42.984375 C 87.101562 -41.460938 82.296875 -40.144531 78.671875 -39.03125 C 75.859375 -38.1875 73.0625 -37.320312 70.28125 -36.4375 C 70.21875 -36.425781 70.132812 -36.382812 70.03125 -36.3125 C 68.851562 -35.945312 67.832031 -35.328125 66.96875 -34.453125 C 63.726562 -31.378906 60.328125 -28.519531 56.765625 -25.875 C 53.210938 -23.238281 49.554688 -20.722656 45.796875 -18.328125 C 39.710938 -14.378906 33.421875 -10.765625 26.921875 -7.484375 C 25.597656 -6.890625 24.722656 -5.878906 24.296875 -4.453125 C 22.222656 2.097656 20.019531 8.535156 17.6875 14.859375 C 15.582031 20.492188 13.613281 26.164062 11.78125 31.875 C 11.789062 31.90625 11.78125 31.941406 11.75 31.984375 C 11.695312 32.273438 11.59375 32.523438 11.4375 32.734375 C 11.195312 33.003906 10.890625 33.144531 10.515625 33.15625 C 10.316406 33.238281 10.113281 33.269531 9.90625 33.25 C 9.457031 33.144531 9.195312 32.863281 9.125 32.40625 C 9.050781 31.65625 9.179688 30.921875 9.515625 30.203125 C 9.535156 30.171875 9.539062 30.128906 9.53125 30.078125 C 11.46875 24.734375 13.359375 19.40625 15.203125 14.09375 C 17.046875 8.78125 18.789062 3.40625 20.4375 -2.03125 C 20.570312 -2.476562 20.707031 -2.941406 20.84375 -3.421875 C 20.863281 -3.648438 20.90625 -3.878906 20.96875 -4.109375 C 20.738281 -4.140625 20.515625 -4.160156 20.296875 -4.171875 C 19.921875 -4.023438 19.554688 -3.863281 19.203125 -3.6875 C 19.078125 -3.625 18.957031 -3.554688 18.84375 -3.484375 C 14.289062 -1.328125 9.65625 0.617188 4.9375 2.359375 C 1.664062 3.523438 -1.65625 4.503906 -5.03125 5.296875 C -5.195312 5.347656 -5.347656 5.382812 -5.484375 5.40625 C -5.816406 5.5 -6.15625 5.570312 -6.5 5.625 C -7.8125 5.84375 -9.125 5.851562 -10.4375 5.65625 C -11.4375 5.46875 -12.085938 5.019531 -12.390625 4.3125 C -12.691406 3.601562 -12.59375 2.773438 -12.09375 1.828125 C -11.40625 0.691406 -10.53125 -0.285156 -9.46875 -1.109375 C -7.101562 -3.179688 -4.5625 -4.972656 -1.84375 -6.484375 C 5.414062 -10.679688 12.832031 -14.523438 20.40625 -18.015625 C 20.8125 -18.234375 21.25 -18.4375 21.71875 -18.625 C 22.695312 -18.976562 23.597656 -19.425781 24.421875 -19.96875 C 25.242188 -20.507812 25.804688 -21.300781 26.109375 -22.34375 C 27.140625 -26.46875 28.117188 -30.585938 29.046875 -34.703125 C 29.972656 -38.828125 30.773438 -42.992188 31.453125 -47.203125 C 31.441406 -47.234375 31.445312 -47.28125 31.46875 -47.34375 C 31.5625 -48.113281 31.722656 -48.84375 31.953125 -49.53125 C 32.054688 -49.757812 32.210938 -49.9375 32.421875 -50.0625 C 32.640625 -50.1875 32.867188 -50.242188 33.109375 -50.234375 C 33.265625 -50.304688 33.453125 -50.335938 33.671875 -50.328125 C 34.191406 -50.285156 34.535156 -49.992188 34.703125 -49.453125 C 34.878906 -48.398438 34.851562 -47.347656 34.625 -46.296875 C 34.632812 -46.265625 34.628906 -46.210938 34.609375 -46.140625 C 33.765625 -40.753906 32.703125 -35.429688 31.421875 -30.171875 C 31.109375 -28.703125 30.773438 -27.265625 30.421875 -25.859375 C 30.273438 -25.335938 30.144531 -24.800781 30.03125 -24.25 C 29.863281 -23.613281 29.816406 -23.179688 29.890625 -22.953125 C 29.972656 -22.734375 30.148438 -22.65625 30.421875 -22.71875 C 30.703125 -22.78125 31.023438 -22.910156 31.390625 -23.109375 C 31.503906 -23.160156 31.628906 -23.210938 31.765625 -23.265625 C 33.203125 -23.898438 34.640625 -24.523438 36.078125 -25.140625 C 38.691406 -26.253906 41.316406 -27.382812 43.953125 -28.53125 C 50.460938 -31.21875 57.046875 -33.679688 63.703125 -35.921875 C 64.898438 -36.316406 65.882812 -36.960938 66.65625 -37.859375 C 68.375 -39.648438 70.023438 -41.691406 71.609375 -43.984375 C 73.191406 -46.285156 74.421875 -48.6875 75.296875 -51.1875 C 76.171875 -53.6875 76.347656 -56.132812 75.828125 -58.53125 C 75.304688 -60.9375 73.800781 -63.160156 71.3125 -65.203125 C 69.726562 -66.410156 67.988281 -67.351562 66.09375 -68.03125 C 62.125 -69.40625 57.5 -70.132812 52.21875 -70.21875 C 46.9375 -70.3125 41.363281 -69.910156 35.5 -69.015625 C 29.632812 -68.117188 23.816406 -66.867188 18.046875 -65.265625 C 12.273438 -63.660156 6.921875 -61.863281 1.984375 -59.875 C -2.953125 -57.894531 -7.132812 -55.867188 -10.5625 -53.796875 C -13.550781 -52.023438 -16.320312 -49.988281 -18.875 -47.6875 C -19.914062 -46.78125 -20.878906 -45.816406 -21.765625 -44.796875 C -22.648438 -43.785156 -23.40625 -42.664062 -24.03125 -41.4375 C -24.257812 -40.90625 -24.628906 -40.582031 -25.140625 -40.46875 C -25.253906 -40.445312 -25.378906 -40.425781 -25.515625 -40.40625 C -25.535156 -40.40625 -25.5625 -40.398438 -25.59375 -40.390625 C -25.800781 -40.359375 -26.003906 -40.351562 -26.203125 -40.375 C -26.398438 -40.394531 -26.566406 -40.488281 -26.703125 -40.65625 C -26.785156 -40.78125 -26.835938 -40.914062 -26.859375 -41.0625 C -26.878906 -41.21875 -26.882812 -41.347656 -26.875 -41.453125 C -26.71875 -42.109375 -26.453125 -42.707031 -26.078125 -43.25 C -25.703125 -43.800781 -25.316406 -44.335938 -24.921875 -44.859375 C -23.859375 -46.117188 -22.722656 -47.28125 -21.515625 -48.34375 C -20.316406 -49.414062 -19.070312 -50.4375 -17.78125 -51.40625 C -14.488281 -53.914062 -10.15625 -56.390625 -4.78125 -58.828125 C 0.582031 -61.273438 6.550781 -63.515625 13.125 -65.546875 C 19.695312 -67.578125 26.390625 -69.191406 33.203125 -70.390625 C 40.023438 -71.585938 46.492188 -72.171875 52.609375 -72.140625 C 58.734375 -72.109375 64.085938 -71.273438 68.671875 -69.640625 C 70.703125 -68.921875 72.585938 -67.882812 74.328125 -66.53125 C 76.804688 -64.519531 78.375 -62.390625 79.03125 -60.140625 C 79.695312 -57.890625 79.742188 -55.609375 79.171875 -53.296875 C 78.597656 -50.992188 77.660156 -48.734375 76.359375 -46.515625 C 75.054688 -44.296875 73.695312 -42.191406 72.28125 -40.203125 C 72.101562 -39.992188 71.929688 -39.75 71.765625 -39.46875 C 71.609375 -39.1875 71.5625 -38.960938 71.625 -38.796875 C 71.6875 -38.628906 71.953125 -38.613281 72.421875 -38.75 C 77.972656 -40.601562 83.554688 -42.226562 89.171875 -43.625 C 94.785156 -45.03125 100.460938 -46.273438 106.203125 -47.359375 C 106.378906 -47.390625 106.535156 -47.414062 106.671875 -47.4375 L 106.703125 -47.453125 C 107.191406 -47.523438 107.675781 -47.570312 108.15625 -47.59375 Z M 22.265625 -8.21875 C 22.347656 -8.550781 22.507812 -9.023438 22.75 -9.640625 C 23.082031 -10.640625 23.421875 -11.734375 23.765625 -12.921875 C 24.109375 -14.117188 24.332031 -15.15625 24.4375 -16.03125 C 24.550781 -16.90625 24.359375 -17.34375 23.859375 -17.34375 C 23.566406 -17.238281 23.289062 -17.117188 23.03125 -16.984375 C 22.96875 -16.972656 22.882812 -16.945312 22.78125 -16.90625 C 21.757812 -16.394531 20.71875 -15.890625 19.65625 -15.390625 C 17.164062 -14.210938 14.675781 -12.984375 12.1875 -11.703125 C 12.070312 -11.648438 11.945312 -11.582031 11.8125 -11.5 C 7.34375 -9.289062 2.972656 -6.878906 -1.296875 -4.265625 C -3.453125 -2.953125 -5.453125 -1.445312 -7.296875 0.25 C -8.015625 0.832031 -8.566406 1.535156 -8.953125 2.359375 C -9.109375 2.703125 -9.117188 2.992188 -8.984375 3.234375 C -8.859375 3.472656 -8.617188 3.640625 -8.265625 3.734375 C -7.515625 3.847656 -6.769531 3.84375 -6.03125 3.71875 C -5.363281 3.613281 -4.710938 3.476562 -4.078125 3.3125 C -4.046875 3.300781 -4.03125 3.296875 -4.03125 3.296875 C -0.726562 2.410156 2.5 1.320312 5.65625 0.03125 C 10.65625 -1.945312 15.5625 -4.113281 20.375 -6.46875 C 20.4375 -6.53125 20.484375 -6.566406 20.515625 -6.578125 C 20.910156 -6.734375 21.265625 -6.929688 21.578125 -7.171875 C 21.890625 -7.421875 22.117188 -7.769531 22.265625 -8.21875 Z M 26.453125 -9.8125 C 29.398438 -11.101562 33.335938 -13.257812 38.265625 -16.28125 C 43.191406 -19.300781 47.894531 -22.410156 52.375 -25.609375 C 56.851562 -28.804688 59.84375 -31.332031 61.34375 -33.1875 C 61.125 -33.144531 60.925781 -33.113281 60.75 -33.09375 C 60.675781 -33.070312 60.625 -33.0625 60.59375 -33.0625 C 50.238281 -29.195312 40.0625 -24.953125 30.0625 -20.328125 C 29.164062 -19.910156 28.613281 -19.25 28.40625 -18.34375 C 27.988281 -16.875 27.582031 -15.421875 27.1875 -13.984375 C 26.875 -12.921875 26.554688 -11.84375 26.234375 -10.75 C 26.203125 -10.59375 26.191406 -10.425781 26.203125 -10.25 C 26.210938 -10.082031 26.296875 -9.9375 26.453125 -9.8125 Z M 26.453125 -9.8125 "/></g></g><g transform="translate(111.697411, 151.254302)"><g><path d="M 8.8125 -16.078125 C 8.851562 -14.984375 8.46875 -14.203125 7.65625 -13.734375 C 6.851562 -13.265625 6.503906 -13.640625 6.609375 -14.859375 C 6.710938 -16.085938 6.128906 -16.300781 4.859375 -15.5 C 3.597656 -14.707031 2.597656 -13.800781 1.859375 -12.78125 C 0.710938 -11.164062 -0.242188 -9.460938 -1.015625 -7.671875 C -1.109375 -7.515625 -1.179688 -7.390625 -1.234375 -7.296875 C -1.472656 -6.785156 -1.710938 -6.304688 -1.953125 -5.859375 C -2.109375 -5.546875 -2.316406 -5.328125 -2.578125 -5.203125 C -2.835938 -5.085938 -3.113281 -5.035156 -3.40625 -5.046875 C -3.664062 -5.035156 -3.878906 -5.101562 -4.046875 -5.25 C -4.210938 -5.40625 -4.257812 -5.609375 -4.1875 -5.859375 C -4.09375 -6.296875 -3.960938 -6.75 -3.796875 -7.21875 C -2.828125 -10.03125 -1.828125 -12.859375 -0.796875 -15.703125 C -0.773438 -15.734375 -0.765625 -15.765625 -0.765625 -15.796875 C -0.640625 -16.222656 -0.460938 -16.632812 -0.234375 -17.03125 C 0.0234375 -17.414062 0.359375 -17.609375 0.765625 -17.609375 C 1.179688 -17.617188 1.488281 -17.425781 1.6875 -17.03125 C 1.945312 -16.519531 2.144531 -16.238281 2.28125 -16.1875 C 2.414062 -16.132812 2.679688 -16.226562 3.078125 -16.46875 C 3.960938 -16.96875 4.832031 -17.351562 5.6875 -17.625 C 6.550781 -17.90625 7.28125 -17.988281 7.875 -17.875 C 8.46875 -17.769531 8.78125 -17.171875 8.8125 -16.078125 Z M 8.8125 -16.078125 "/></g></g><g transform="translate(123.309124, 149.368284)"><g><path d="M 7.640625 -11.28125 C 6.972656 -10.164062 6.140625 -9.101562 5.140625 -8.09375 C 4.140625 -7.09375 2.953125 -6.332031 1.578125 -5.8125 C 0.203125 -5.300781 -0.914062 -5.226562 -1.78125 -5.59375 C -2.65625 -5.96875 -2.992188 -7.039062 -2.796875 -8.8125 C -2.460938 -10.675781 -1.878906 -12.5 -1.046875 -14.28125 C -0.859375 -14.664062 -0.546875 -14.960938 -0.109375 -15.171875 C 0.222656 -15.296875 0.53125 -15.28125 0.8125 -15.125 C 1.101562 -14.976562 1.242188 -14.753906 1.234375 -14.453125 C 1.078125 -13.859375 0.90625 -13.257812 0.71875 -12.65625 C 0.539062 -12.050781 0.414062 -11.65625 0.34375 -11.46875 C -0.03125 -10.394531 -0.238281 -9.300781 -0.28125 -8.1875 C -0.1875 -7.5625 0.644531 -7.65625 2.21875 -8.46875 C 3.789062 -9.28125 5.238281 -10.535156 6.5625 -12.234375 C 7.894531 -13.929688 8.570312 -14.476562 8.59375 -13.875 C 8.625 -13.269531 8.304688 -12.40625 7.640625 -11.28125 Z M 2.34375 -18.390625 C 2.269531 -18.316406 2.117188 -18.21875 1.890625 -18.09375 C 1.660156 -17.976562 1.410156 -17.878906 1.140625 -17.796875 C 0.878906 -17.710938 0.660156 -17.71875 0.484375 -17.8125 C 0.316406 -17.90625 0.269531 -18.15625 0.34375 -18.5625 C 0.476562 -19.25 0.640625 -19.859375 0.828125 -20.390625 C 1.023438 -20.921875 1.296875 -21.515625 1.640625 -22.171875 C 1.867188 -22.472656 2.144531 -22.664062 2.46875 -22.75 C 2.800781 -22.832031 3.085938 -22.789062 3.328125 -22.625 C 3.578125 -22.457031 3.6875 -22.203125 3.65625 -21.859375 C 3.519531 -20.578125 3.082031 -19.421875 2.34375 -18.390625 Z M 2.34375 -18.390625 "/></g></g><g transform="translate(132.366261, 147.89719)"><g><path d="M 12.6875 -13.578125 C 11.007812 -10.785156 9.269531 -8.648438 7.46875 -7.171875 C 5.664062 -5.691406 3.597656 -4.960938 1.265625 -4.984375 C -1.066406 -5.015625 -2.242188 -6.382812 -2.265625 -9.09375 C -2.210938 -10.46875 -2.039062 -11.832031 -1.75 -13.1875 C -1.039062 -16.320312 -0.3125 -19.460938 0.4375 -22.609375 C 0.664062 -23.710938 0.921875 -24.835938 1.203125 -25.984375 C 1.253906 -26.234375 1.304688 -26.484375 1.359375 -26.734375 C 1.484375 -27.148438 1.597656 -27.566406 1.703125 -27.984375 C 1.847656 -28.710938 1.519531 -29.03125 0.71875 -28.9375 C 0.257812 -28.863281 -0.179688 -28.789062 -0.609375 -28.71875 C -0.816406 -28.6875 -1.046875 -28.648438 -1.296875 -28.609375 C -1.503906 -28.535156 -1.734375 -28.472656 -1.984375 -28.421875 C -2.390625 -28.316406 -2.785156 -28.234375 -3.171875 -28.171875 C -3.566406 -28.109375 -3.953125 -28.144531 -4.328125 -28.28125 C -4.421875 -28.289062 -4.503906 -28.335938 -4.578125 -28.421875 C -4.648438 -28.503906 -4.691406 -28.597656 -4.703125 -28.703125 C -4.679688 -28.765625 -4.640625 -28.84375 -4.578125 -28.9375 C -4.523438 -29.039062 -4.453125 -29.117188 -4.359375 -29.171875 C -4.046875 -29.347656 -3.707031 -29.5 -3.34375 -29.625 C -2.375 -29.832031 -1.425781 -30.03125 -0.5 -30.21875 C -0.125 -30.269531 0.203125 -30.320312 0.484375 -30.375 C 1.097656 -30.46875 1.550781 -30.5625 1.84375 -30.65625 C 2.144531 -30.757812 2.363281 -30.960938 2.5 -31.265625 C 2.644531 -31.578125 2.789062 -32.046875 2.9375 -32.671875 C 3.03125 -32.992188 3.148438 -33.359375 3.296875 -33.765625 C 3.628906 -34.929688 3.960938 -36.125 4.296875 -37.34375 C 4.429688 -37.875 4.582031 -38.40625 4.75 -38.9375 C 4.882812 -39.445312 5.144531 -39.867188 5.53125 -40.203125 C 5.925781 -40.484375 6.289062 -40.53125 6.625 -40.34375 C 6.726562 -40.289062 6.816406 -40.195312 6.890625 -40.0625 C 6.972656 -39.9375 7.019531 -39.816406 7.03125 -39.703125 C 7.132812 -39.109375 7.078125 -38.492188 6.859375 -37.859375 C 6.816406 -37.710938 6.78125 -37.550781 6.75 -37.375 C 6.625 -36.78125 6.488281 -36.179688 6.34375 -35.578125 C 6.082031 -34.453125 5.835938 -33.304688 5.609375 -32.140625 C 5.523438 -31.921875 5.546875 -31.738281 5.671875 -31.59375 C 5.804688 -31.457031 5.972656 -31.40625 6.171875 -31.4375 C 7.265625 -31.582031 8.34375 -31.742188 9.40625 -31.921875 C 9.9375 -32.003906 10.476562 -32.09375 11.03125 -32.1875 C 12.75 -32.425781 13.472656 -32.296875 13.203125 -31.796875 C 13.003906 -31.492188 12.769531 -31.300781 12.5 -31.21875 C 12.238281 -31.132812 11.960938 -31.09375 11.671875 -31.09375 C 11.515625 -31.070312 11.347656 -31.046875 11.171875 -31.015625 C 9.453125 -30.617188 7.742188 -30.269531 6.046875 -29.96875 C 5.253906 -29.832031 4.785156 -29.390625 4.640625 -28.640625 C 4.472656 -27.921875 4.316406 -27.195312 4.171875 -26.46875 C 3.929688 -25.507812 3.707031 -24.570312 3.5 -23.65625 C 3.289062 -22.800781 3.082031 -21.9375 2.875 -21.0625 C 2.332031 -18.84375 1.816406 -16.617188 1.328125 -14.390625 C 1.046875 -12.941406 0.875 -11.488281 0.8125 -10.03125 C 0.570312 -7.320312 1.726562 -6.488281 4.28125 -7.53125 C 6.78125 -8.570312 9.203125 -10.894531 11.546875 -14.5 C 12.648438 -15.476562 13.03125 -15.171875 12.6875 -13.578125 Z M 12.6875 -13.578125 "/></g></g><g transform="translate(145.557166, 145.754674)"><g><path d="M 14.921875 -14.5625 C 15.316406 -14.414062 15.429688 -13.914062 15.265625 -13.0625 C 14.898438 -12.394531 14.503906 -11.765625 14.078125 -11.171875 C 13.660156 -10.578125 13.175781 -10.035156 12.625 -9.546875 C 12.570312 -9.535156 12.550781 -9.515625 12.5625 -9.484375 C 12.207031 -9.140625 11.828125 -8.832031 11.421875 -8.5625 C 7.929688 -6.625 5.910156 -7.097656 5.359375 -9.984375 C 4.066406 -8.429688 3.191406 -7.46875 2.734375 -7.09375 C 1.617188 -6.15625 0.347656 -5.613281 -1.078125 -5.46875 C -2.140625 -5.363281 -2.90625 -5.570312 -3.375 -6.09375 C -3.851562 -6.613281 -3.953125 -7.40625 -3.671875 -8.46875 C -3.234375 -10.132812 -2.488281 -11.679688 -1.4375 -13.109375 C -0.175781 -14.710938 1.273438 -16.070312 2.921875 -17.1875 C 3.804688 -17.820312 4.785156 -18.171875 5.859375 -18.234375 C 6.921875 -18.347656 7.65625 -17.851562 8.0625 -16.75 C 8.207031 -16.4375 8.164062 -16.117188 7.9375 -15.796875 C 7.65625 -15.441406 7.269531 -15.3125 6.78125 -15.40625 C 6.75 -15.40625 6.707031 -15.40625 6.65625 -15.40625 C 6.613281 -15.414062 6.570312 -15.4375 6.53125 -15.46875 C 5.976562 -16 5.476562 -16.175781 5.03125 -16 C 4.59375 -15.832031 4.148438 -15.550781 3.703125 -15.15625 C 1.535156 -13.382812 0.0703125 -11.15625 -0.6875 -8.46875 C -0.71875 -8.351562 -0.726562 -8.226562 -0.71875 -8.09375 C -0.71875 -7.957031 -0.671875 -7.859375 -0.578125 -7.796875 C -0.273438 -7.742188 0.03125 -7.8125 0.34375 -8 C 0.65625 -8.1875 0.957031 -8.4375 1.25 -8.75 C 1.550781 -9.070312 1.8125 -9.328125 2.03125 -9.515625 C 2.050781 -9.578125 2.0625 -9.609375 2.0625 -9.609375 C 3.039062 -10.734375 3.988281 -11.878906 4.90625 -13.046875 C 5.3125 -13.640625 5.863281 -14.023438 6.5625 -14.203125 C 7.582031 -14.367188 8.082031 -13.976562 8.0625 -13.03125 C 8.03125 -12.6875 7.984375 -12.332031 7.921875 -11.96875 C 7.753906 -10.4375 7.878906 -9.570312 8.296875 -9.375 C 8.710938 -9.175781 9.285156 -9.265625 10.015625 -9.640625 C 10.742188 -10.023438 11.429688 -10.640625 12.078125 -11.484375 C 12.722656 -12.328125 13.257812 -13.085938 13.6875 -13.765625 C 14.113281 -14.453125 14.523438 -14.71875 14.921875 -14.5625 Z M 14.921875 -14.5625 "/></g></g><g transform="translate(160.954298, 143.253814)"><g><path d="M 22.390625 -15.5625 C 22.867188 -16.007812 23.273438 -16.164062 23.609375 -16.03125 C 23.953125 -15.90625 23.914062 -15.410156 23.5 -14.546875 C 22.976562 -13.515625 21.921875 -12.335938 20.328125 -11.015625 C 18.734375 -9.703125 17.253906 -9.003906 15.890625 -8.921875 C 14.523438 -8.835938 13.972656 -9.765625 14.234375 -11.703125 C 14.492188 -13.648438 14.628906 -14.738281 14.640625 -14.96875 C 14.648438 -15.207031 14.582031 -15.328125 14.4375 -15.328125 C 14.300781 -15.335938 14.019531 -15.140625 13.59375 -14.734375 C 12.363281 -13.535156 11.164062 -12.300781 10 -11.03125 C 9.5 -10.519531 9.007812 -9.972656 8.53125 -9.390625 C 8.238281 -9.035156 7.9375 -8.671875 7.625 -8.296875 C 7.625 -8.296875 7.609375 -8.273438 7.578125 -8.234375 C 7.234375 -7.773438 6.78125 -7.425781 6.21875 -7.1875 C 5.96875 -7.0625 5.691406 -6.988281 5.390625 -6.96875 C 5.097656 -6.945312 4.832031 -7.019531 4.59375 -7.1875 C 4.332031 -7.375 4.207031 -7.601562 4.21875 -7.875 C 4.238281 -8.144531 4.367188 -8.5625 4.609375 -9.125 C 4.859375 -9.6875 5.128906 -10.300781 5.421875 -10.96875 C 5.722656 -11.644531 5.882812 -12.054688 5.90625 -12.203125 C 5.925781 -12.359375 5.882812 -12.492188 5.78125 -12.609375 C 5.644531 -12.722656 5.515625 -12.742188 5.390625 -12.671875 C 5.265625 -12.597656 4.820312 -12.1875 4.0625 -11.4375 C 3.3125 -10.695312 2.289062 -9.65625 1 -8.3125 C 0.40625 -7.6875 -0.164062 -7.054688 -0.71875 -6.421875 C -0.863281 -6.210938 -1.03125 -6.019531 -1.21875 -5.84375 C -1.625 -5.375 -2.113281 -5.078125 -2.6875 -4.953125 C -3.101562 -4.847656 -3.425781 -4.882812 -3.65625 -5.0625 C -3.894531 -5.25 -3.976562 -5.546875 -3.90625 -5.953125 C -3.851562 -6.242188 -3.78125 -6.515625 -3.6875 -6.765625 C -3.613281 -6.890625 -3.570312 -7.007812 -3.5625 -7.125 C -2.75 -9.800781 -1.941406 -12.476562 -1.140625 -15.15625 C -1.117188 -15.226562 -1.101562 -15.316406 -1.09375 -15.421875 C -1 -15.710938 -0.90625 -16 -0.8125 -16.28125 C -0.5 -16.726562 -0.078125 -16.925781 0.453125 -16.875 C 1.066406 -16.800781 1.34375 -16.492188 1.28125 -15.953125 C 1.132812 -15.140625 0.992188 -14.332031 0.859375 -13.53125 C 0.773438 -13.164062 0.691406 -12.804688 0.609375 -12.453125 C 0.460938 -11.804688 0.445312 -11.40625 0.5625 -11.25 C 0.6875 -11.09375 1.050781 -11.269531 1.65625 -11.78125 C 2.070312 -12.15625 2.484375 -12.539062 2.890625 -12.9375 C 3.359375 -13.394531 3.828125 -13.820312 4.296875 -14.21875 C 5.015625 -14.820312 5.753906 -15.363281 6.515625 -15.84375 C 6.890625 -16.070312 7.28125 -16.265625 7.6875 -16.421875 C 8.101562 -16.578125 8.519531 -16.546875 8.9375 -16.328125 C 9.25 -16.140625 9.40625 -15.894531 9.40625 -15.59375 C 9.414062 -15.289062 9.378906 -14.992188 9.296875 -14.703125 C 9.171875 -14.171875 9.140625 -13.832031 9.203125 -13.6875 C 9.273438 -13.550781 9.398438 -13.546875 9.578125 -13.671875 C 9.765625 -13.796875 10.085938 -14.050781 10.546875 -14.4375 C 11.003906 -14.832031 11.503906 -15.265625 12.046875 -15.734375 C 12.703125 -16.328125 13.40625 -16.910156 14.15625 -17.484375 C 14.757812 -18.046875 15.441406 -18.4375 16.203125 -18.65625 C 17.265625 -18.894531 17.769531 -18.53125 17.71875 -17.5625 C 17.675781 -16.59375 17.484375 -15.414062 17.140625 -14.03125 C 16.796875 -12.65625 16.867188 -11.859375 17.359375 -11.640625 C 17.847656 -11.421875 18.757812 -11.976562 20.09375 -13.3125 C 21.4375 -14.644531 22.203125 -15.394531 22.390625 -15.5625 Z M 22.390625 -15.5625 "/></g></g><g transform="translate(185.524682, 139.263001)"><g/></g><g transform="translate(203.081592, 136.411342)"><g><path d="M 109.078125 -86.515625 C 109.546875 -86.234375 109.976562 -85.90625 110.375 -85.53125 C 110.769531 -85.164062 111.0625 -84.695312 111.25 -84.125 C 111.457031 -83.488281 111.304688 -82.953125 110.796875 -82.515625 C 110.472656 -82.285156 110.140625 -82.207031 109.796875 -82.28125 C 109.453125 -82.351562 109.1875 -82.566406 109 -82.921875 C 108.445312 -83.867188 107.742188 -84.582031 106.890625 -85.0625 C 106.046875 -85.539062 105.148438 -85.929688 104.203125 -86.234375 C 102.085938 -86.941406 99.9375 -87.445312 97.75 -87.75 C 95.570312 -88.050781 93.394531 -88.273438 91.21875 -88.421875 C 87.582031 -88.585938 82.820312 -88.304688 76.9375 -87.578125 C 71.0625 -86.859375 64.566406 -85.71875 57.453125 -84.15625 C 50.347656 -82.601562 43.132812 -80.644531 35.8125 -78.28125 C 28.5 -75.925781 21.566406 -73.195312 15.015625 -70.09375 C 8.472656 -66.988281 2.84375 -63.53125 -1.875 -59.71875 C -6.59375 -55.914062 -9.898438 -51.796875 -11.796875 -47.359375 C -13.359375 -43.503906 -13.1875 -39.738281 -11.28125 -36.0625 C -9.90625 -33.550781 -8.175781 -31.347656 -6.09375 -29.453125 C -2.96875 -26.597656 0.378906 -24.066406 3.953125 -21.859375 C 7.003906 -19.867188 10.070312 -17.882812 13.15625 -15.90625 C 16.144531 -14.019531 19.148438 -12.097656 22.171875 -10.140625 C 25.535156 -7.921875 28.859375 -5.664062 32.140625 -3.375 C 32.441406 -3.144531 32.753906 -2.925781 33.078125 -2.71875 C 34.835938 -1.539062 36.4375 -0.179688 37.875 1.359375 C 39.394531 3.140625 39.875 4.632812 39.3125 5.84375 C 38.757812 7.0625 37.484375 8.03125 35.484375 8.75 C 33.492188 9.476562 31.125 9.988281 28.375 10.28125 C 25.625 10.570312 22.820312 10.671875 19.96875 10.578125 C 17.125 10.492188 14.566406 10.253906 12.296875 9.859375 C 10.035156 9.472656 8.394531 8.957031 7.375 8.3125 C 5.34375 6.945312 4.941406 5.238281 6.171875 3.1875 C 7.535156 1.03125 9.335938 -0.664062 11.578125 -1.90625 C 14.816406 -3.789062 18.289062 -4.46875 22 -3.9375 C 22.726562 -3.789062 23.4375 -3.570312 24.125 -3.28125 C 24.1875 -3.257812 24.25 -3.226562 24.3125 -3.1875 C 24.488281 -3.125 24.617188 -3.003906 24.703125 -2.828125 C 24.796875 -2.648438 24.800781 -2.441406 24.71875 -2.203125 C 24.5 -1.816406 24.171875 -1.660156 23.734375 -1.734375 C 23.328125 -1.816406 22.9375 -1.925781 22.5625 -2.0625 C 19.914062 -2.894531 17.359375 -2.742188 14.890625 -1.609375 C 12.421875 -0.484375 10.46875 1.28125 9.03125 3.6875 C 8.425781 4.84375 8.53125 5.742188 9.34375 6.390625 C 10.164062 7.046875 11.335938 7.519531 12.859375 7.8125 C 14.390625 8.113281 15.898438 8.296875 17.390625 8.359375 C 18.878906 8.421875 19.992188 8.453125 20.734375 8.453125 C 20.867188 8.429688 20.96875 8.429688 21.03125 8.453125 C 21.175781 8.429688 21.351562 8.421875 21.5625 8.421875 C 22.5 8.472656 23.78125 8.476562 25.40625 8.4375 C 27.03125 8.40625 28.691406 8.296875 30.390625 8.109375 C 32.097656 7.921875 33.53125 7.578125 34.6875 7.078125 C 35.84375 6.578125 36.425781 5.867188 36.4375 4.953125 C 36.445312 4.046875 35.5625 2.84375 33.78125 1.34375 C 31.894531 -0.226562 29.914062 -1.738281 27.84375 -3.1875 C 22.71875 -6.757812 17.5 -10.179688 12.1875 -13.453125 C 10.269531 -14.671875 8.351562 -15.894531 6.4375 -17.125 C 3.25 -19.1875 0.09375 -21.3125 -3.03125 -23.5 C -5.925781 -25.507812 -8.554688 -27.8125 -10.921875 -30.40625 C -12.617188 -32.289062 -13.941406 -34.40625 -14.890625 -36.75 C -16.359375 -40.59375 -16.21875 -44.390625 -14.46875 -48.140625 C -12.570312 -52.328125 -9.476562 -56.257812 -5.1875 -59.9375 C -0.894531 -63.625 4.222656 -67.003906 10.171875 -70.078125 C 16.128906 -73.160156 22.5625 -75.914062 29.46875 -78.34375 C 36.375 -80.78125 43.40625 -82.851562 50.5625 -84.5625 C 57.726562 -86.28125 64.65625 -87.59375 71.34375 -88.5 C 78.039062 -89.414062 84.148438 -89.890625 89.671875 -89.921875 C 95.203125 -89.960938 99.816406 -89.53125 103.515625 -88.625 C 105.453125 -88.21875 107.304688 -87.515625 109.078125 -86.515625 Z M 109.078125 -86.515625 "/></g></g><g transform="translate(237.312922, 130.851361)"><g><path d="M 17.09375 -13.890625 C 16.863281 -13.597656 16.613281 -13.320312 16.34375 -13.0625 C 15.4375 -12.28125 14.613281 -11.648438 13.875 -11.171875 C 13.132812 -10.691406 12.257812 -10.175781 11.25 -9.625 C 9.71875 -8.882812 8.664062 -8.820312 8.09375 -9.4375 C 7.519531 -10.050781 7.28125 -11.007812 7.375 -12.3125 C 7.53125 -14.144531 7.578125 -15.476562 7.515625 -16.3125 C 7.453125 -17.144531 7.132812 -17.378906 6.5625 -17.015625 C 5.988281 -16.660156 5.015625 -15.632812 3.640625 -13.9375 C 1.710938 -11.644531 0.15625 -9.125 -1.03125 -6.375 C -1.1875 -5.988281 -1.390625 -5.664062 -1.640625 -5.40625 C -1.898438 -5.144531 -2.242188 -4.976562 -2.671875 -4.90625 C -3.097656 -4.832031 -3.421875 -4.890625 -3.640625 -5.078125 C -3.859375 -5.265625 -3.914062 -5.5625 -3.8125 -5.96875 C -3.21875 -8.125 -2.601562 -10.269531 -1.96875 -12.40625 C -0.875 -16.101562 0.1875 -19.789062 1.21875 -23.46875 C 2 -26.21875 2.765625 -28.96875 3.515625 -31.71875 C 3.972656 -33.332031 4.421875 -34.941406 4.859375 -36.546875 C 4.898438 -36.679688 4.953125 -36.820312 5.015625 -36.96875 C 5.046875 -37.15625 5.085938 -37.335938 5.140625 -37.515625 C 5.203125 -37.703125 5.273438 -37.910156 5.359375 -38.140625 C 5.410156 -38.304688 5.554688 -38.460938 5.796875 -38.609375 C 6.046875 -38.765625 6.289062 -38.878906 6.53125 -38.953125 C 6.78125 -39.023438 6.984375 -39.039062 7.140625 -39 C 7.359375 -38.894531 7.492188 -38.769531 7.546875 -38.625 C 7.597656 -38.476562 7.59375 -38.3125 7.53125 -38.125 C 7.507812 -38.09375 7.503906 -38.039062 7.515625 -37.96875 C 7.347656 -37 7.164062 -36.054688 6.96875 -35.140625 C 5.769531 -30.085938 4.382812 -25.078125 2.8125 -20.109375 C 2.6875 -19.765625 2.550781 -19.359375 2.40625 -18.890625 C 2.15625 -18.210938 1.929688 -17.550781 1.734375 -16.90625 C 1.535156 -16.257812 1.5 -15.84375 1.625 -15.65625 C 1.757812 -15.476562 2.195312 -15.710938 2.9375 -16.359375 C 3.164062 -16.566406 3.367188 -16.773438 3.546875 -16.984375 C 4.117188 -17.515625 4.691406 -18.03125 5.265625 -18.53125 C 5.765625 -18.976562 6.351562 -19.273438 7.03125 -19.421875 C 8.632812 -19.796875 9.664062 -19.210938 10.125 -17.671875 C 10.300781 -17.046875 10.378906 -16.410156 10.359375 -15.765625 C 10.335938 -15.128906 10.289062 -14.492188 10.21875 -13.859375 C 10.21875 -13.679688 10.21875 -13.503906 10.21875 -13.328125 C 10.09375 -12.234375 10.253906 -11.640625 10.703125 -11.546875 C 11.160156 -11.460938 11.742188 -11.644531 12.453125 -12.09375 C 13.171875 -12.550781 13.890625 -13.078125 14.609375 -13.671875 C 15.109375 -14.035156 15.546875 -14.351562 15.921875 -14.625 C 16.304688 -14.894531 16.59375 -15.03125 16.78125 -15.03125 C 17.164062 -15.03125 17.363281 -14.90625 17.375 -14.65625 C 17.382812 -14.414062 17.289062 -14.160156 17.09375 -13.890625 Z M 17.09375 -13.890625 "/></g></g><g transform="translate(255.032395, 127.973298)"><g><path d="M 8.8125 -16.078125 C 8.851562 -14.984375 8.46875 -14.203125 7.65625 -13.734375 C 6.851562 -13.265625 6.503906 -13.640625 6.609375 -14.859375 C 6.710938 -16.085938 6.128906 -16.300781 4.859375 -15.5 C 3.597656 -14.707031 2.597656 -13.800781 1.859375 -12.78125 C 0.710938 -11.164062 -0.242188 -9.460938 -1.015625 -7.671875 C -1.109375 -7.515625 -1.179688 -7.390625 -1.234375 -7.296875 C -1.472656 -6.785156 -1.710938 -6.304688 -1.953125 -5.859375 C -2.109375 -5.546875 -2.316406 -5.328125 -2.578125 -5.203125 C -2.835938 -5.085938 -3.113281 -5.035156 -3.40625 -5.046875 C -3.664062 -5.035156 -3.878906 -5.101562 -4.046875 -5.25 C -4.210938 -5.40625 -4.257812 -5.609375 -4.1875 -5.859375 C -4.09375 -6.296875 -3.960938 -6.75 -3.796875 -7.21875 C -2.828125 -10.03125 -1.828125 -12.859375 -0.796875 -15.703125 C -0.773438 -15.734375 -0.765625 -15.765625 -0.765625 -15.796875 C -0.640625 -16.222656 -0.460938 -16.632812 -0.234375 -17.03125 C 0.0234375 -17.414062 0.359375 -17.609375 0.765625 -17.609375 C 1.179688 -17.617188 1.488281 -17.425781 1.6875 -17.03125 C 1.945312 -16.519531 2.144531 -16.238281 2.28125 -16.1875 C 2.414062 -16.132812 2.679688 -16.226562 3.078125 -16.46875 C 3.960938 -16.96875 4.832031 -17.351562 5.6875 -17.625 C 6.550781 -17.90625 7.28125 -17.988281 7.875 -17.875 C 8.46875 -17.769531 8.78125 -17.171875 8.8125 -16.078125 Z M 8.8125 -16.078125 "/></g></g><g transform="translate(266.644109, 126.08728)"><g><path d="M 11.796875 -11.0625 C 11.035156 -10.039062 10.109375 -9.113281 9.015625 -8.28125 C 7.929688 -7.457031 7 -6.882812 6.21875 -6.5625 C 5.445312 -6.25 4.640625 -6.007812 3.796875 -5.84375 C 2.441406 -5.5625 1.15625 -5.539062 -0.0625 -5.78125 C -2.050781 -6.238281 -2.9375 -7.585938 -2.71875 -9.828125 C -2.476562 -11.742188 -1.613281 -13.359375 -0.125 -14.671875 C 1.363281 -15.984375 3 -16.757812 4.78125 -17 C 4.78125 -17 4.796875 -17.003906 4.828125 -17.015625 C 5.265625 -17.128906 5.695312 -17.164062 6.125 -17.125 C 6.832031 -16.988281 7.320312 -16.65625 7.59375 -16.125 C 7.875 -15.601562 7.851562 -14.96875 7.53125 -14.21875 C 6.789062 -12.550781 5.582031 -11.492188 3.90625 -11.046875 C 2.789062 -10.765625 1.691406 -10.644531 0.609375 -10.6875 C 0.390625 -10.6875 0.21875 -10.601562 0.09375 -10.4375 C -0.03125 -10.28125 -0.09375 -10.09375 -0.09375 -9.875 C -0.1875 -8.488281 0.359375 -7.703125 1.546875 -7.515625 C 3.015625 -7.273438 4.457031 -7.507812 5.875 -8.21875 C 7.53125 -9.039062 9.015625 -10.332031 10.328125 -12.09375 C 11.648438 -13.851562 12.4375 -14.703125 12.6875 -14.640625 C 12.945312 -14.578125 13.070312 -14.296875 13.0625 -13.796875 C 12.976562 -13.003906 12.554688 -12.09375 11.796875 -11.0625 Z M 1.28125 -13.203125 C 1.207031 -13.078125 1.160156 -12.945312 1.140625 -12.8125 C 1.117188 -12.675781 1.191406 -12.5625 1.359375 -12.46875 C 1.960938 -12.25 2.570312 -12.234375 3.1875 -12.421875 C 3.800781 -12.609375 4.296875 -12.929688 4.671875 -13.390625 C 5.054688 -13.859375 5.171875 -14.375 5.015625 -14.9375 C 4.929688 -15.144531 4.796875 -15.257812 4.609375 -15.28125 C 4.429688 -15.300781 4.269531 -15.285156 4.125 -15.234375 C 3 -14.847656 2.050781 -14.171875 1.28125 -13.203125 Z M 1.28125 -13.203125 "/></g></g><g transform="translate(280.160142, 123.891956)"><g><path d="M 9.34375 -13.59375 C 7.039062 -12.289062 5.394531 -11.265625 4.40625 -10.515625 C 3.675781 -9.992188 3.269531 -9.597656 3.1875 -9.328125 C 3.113281 -9.054688 3.28125 -8.597656 3.6875 -7.953125 C 3.695312 -7.921875 3.726562 -7.878906 3.78125 -7.828125 C 4.25 -7.054688 4.582031 -6.238281 4.78125 -5.375 C 5.1875 -3.601562 3.878906 -2.109375 0.859375 -0.890625 C -2.160156 0.328125 -4.25 0.6875 -5.40625 0.1875 C -6.570312 -0.300781 -7.03125 -1.085938 -6.78125 -2.171875 C -6.539062 -3.265625 -5.648438 -4.476562 -4.109375 -5.8125 C -2.566406 -7.144531 -1.539062 -8.085938 -1.03125 -8.640625 C -0.53125 -9.203125 -0.441406 -9.75 -0.765625 -10.28125 C -0.878906 -10.476562 -1 -10.671875 -1.125 -10.859375 C -1.394531 -11.296875 -1.679688 -11.757812 -1.984375 -12.25 C -2.535156 -13.113281 -2.859375 -13.992188 -2.953125 -14.890625 C -3.054688 -15.796875 -2.847656 -16.601562 -2.328125 -17.3125 C -1.816406 -18.03125 -0.921875 -18.515625 0.359375 -18.765625 C 1.078125 -18.921875 1.742188 -18.929688 2.359375 -18.796875 C 2.972656 -18.660156 3.492188 -18.320312 3.921875 -17.78125 C 4.273438 -17.40625 4.253906 -17.007812 3.859375 -16.59375 C 3.609375 -16.3125 3.289062 -16.226562 2.90625 -16.34375 C 2.6875 -16.40625 2.460938 -16.507812 2.234375 -16.65625 C 2.222656 -16.695312 2.21875 -16.71875 2.21875 -16.71875 C 2.113281 -16.769531 2.015625 -16.8125 1.921875 -16.84375 C 1.804688 -16.976562 1.691406 -17.070312 1.578125 -17.125 C 1.117188 -17.363281 0.695312 -17.390625 0.3125 -17.203125 C -0.0703125 -17.015625 -0.328125 -16.648438 -0.453125 -16.109375 C -0.535156 -15.679688 -0.539062 -15.265625 -0.46875 -14.859375 C -0.351562 -14.335938 -0.15625 -13.851562 0.125 -13.40625 C 0.320312 -13.144531 0.492188 -12.898438 0.640625 -12.671875 C 1.003906 -12.023438 1.289062 -11.585938 1.5 -11.359375 C 1.71875 -11.140625 1.941406 -11.066406 2.171875 -11.140625 C 2.410156 -11.210938 4.476562 -12.351562 8.375 -14.5625 C 9.226562 -15.007812 9.550781 -14.6875 9.34375 -13.59375 Z M 0.71875 -3.09375 C 1.738281 -3.632812 2.078125 -4.441406 1.734375 -5.515625 C 1.722656 -5.585938 1.695312 -5.664062 1.65625 -5.75 C 1.488281 -6.332031 1.28125 -6.765625 1.03125 -7.046875 C 0.789062 -7.328125 0.378906 -7.242188 -0.203125 -6.796875 C -1.660156 -5.628906 -2.972656 -4.320312 -4.140625 -2.875 C -4.210938 -2.75 -4.28125 -2.632812 -4.34375 -2.53125 C -4.34375 -2.53125 -4.351562 -2.503906 -4.375 -2.453125 C -4.457031 -2.316406 -4.453125 -2.175781 -4.359375 -2.03125 C -4.265625 -1.882812 -4.109375 -1.832031 -3.890625 -1.875 C -2.253906 -1.875 -0.71875 -2.28125 0.71875 -3.09375 Z M 0.71875 -3.09375 "/></g></g><g transform="translate(290.44812, 122.220944)"><g><path d="M 12.6875 -13.578125 C 11.007812 -10.785156 9.269531 -8.648438 7.46875 -7.171875 C 5.664062 -5.691406 3.597656 -4.960938 1.265625 -4.984375 C -1.066406 -5.015625 -2.242188 -6.382812 -2.265625 -9.09375 C -2.210938 -10.46875 -2.039062 -11.832031 -1.75 -13.1875 C -1.039062 -16.320312 -0.3125 -19.460938 0.4375 -22.609375 C 0.664062 -23.710938 0.921875 -24.835938 1.203125 -25.984375 C 1.253906 -26.234375 1.304688 -26.484375 1.359375 -26.734375 C 1.484375 -27.148438 1.597656 -27.566406 1.703125 -27.984375 C 1.847656 -28.710938 1.519531 -29.03125 0.71875 -28.9375 C 0.257812 -28.863281 -0.179688 -28.789062 -0.609375 -28.71875 C -0.816406 -28.6875 -1.046875 -28.648438 -1.296875 -28.609375 C -1.503906 -28.535156 -1.734375 -28.472656 -1.984375 -28.421875 C -2.390625 -28.316406 -2.785156 -28.234375 -3.171875 -28.171875 C -3.566406 -28.109375 -3.953125 -28.144531 -4.328125 -28.28125 C -4.421875 -28.289062 -4.503906 -28.335938 -4.578125 -28.421875 C -4.648438 -28.503906 -4.691406 -28.597656 -4.703125 -28.703125 C -4.679688 -28.765625 -4.640625 -28.84375 -4.578125 -28.9375 C -4.523438 -29.039062 -4.453125 -29.117188 -4.359375 -29.171875 C -4.046875 -29.347656 -3.707031 -29.5 -3.34375 -29.625 C -2.375 -29.832031 -1.425781 -30.03125 -0.5 -30.21875 C -0.125 -30.269531 0.203125 -30.320312 0.484375 -30.375 C 1.097656 -30.46875 1.550781 -30.5625 1.84375 -30.65625 C 2.144531 -30.757812 2.363281 -30.960938 2.5 -31.265625 C 2.644531 -31.578125 2.789062 -32.046875 2.9375 -32.671875 C 3.03125 -32.992188 3.148438 -33.359375 3.296875 -33.765625 C 3.628906 -34.929688 3.960938 -36.125 4.296875 -37.34375 C 4.429688 -37.875 4.582031 -38.40625 4.75 -38.9375 C 4.882812 -39.445312 5.144531 -39.867188 5.53125 -40.203125 C 5.925781 -40.484375 6.289062 -40.53125 6.625 -40.34375 C 6.726562 -40.289062 6.816406 -40.195312 6.890625 -40.0625 C 6.972656 -39.9375 7.019531 -39.816406 7.03125 -39.703125 C 7.132812 -39.109375 7.078125 -38.492188 6.859375 -37.859375 C 6.816406 -37.710938 6.78125 -37.550781 6.75 -37.375 C 6.625 -36.78125 6.488281 -36.179688 6.34375 -35.578125 C 6.082031 -34.453125 5.835938 -33.304688 5.609375 -32.140625 C 5.523438 -31.921875 5.546875 -31.738281 5.671875 -31.59375 C 5.804688 -31.457031 5.972656 -31.40625 6.171875 -31.4375 C 7.265625 -31.582031 8.34375 -31.742188 9.40625 -31.921875 C 9.9375 -32.003906 10.476562 -32.09375 11.03125 -32.1875 C 12.75 -32.425781 13.472656 -32.296875 13.203125 -31.796875 C 13.003906 -31.492188 12.769531 -31.300781 12.5 -31.21875 C 12.238281 -31.132812 11.960938 -31.09375 11.671875 -31.09375 C 11.515625 -31.070312 11.347656 -31.046875 11.171875 -31.015625 C 9.453125 -30.617188 7.742188 -30.269531 6.046875 -29.96875 C 5.253906 -29.832031 4.785156 -29.390625 4.640625 -28.640625 C 4.472656 -27.921875 4.316406 -27.195312 4.171875 -26.46875 C 3.929688 -25.507812 3.707031 -24.570312 3.5 -23.65625 C 3.289062 -22.800781 3.082031 -21.9375 2.875 -21.0625 C 2.332031 -18.84375 1.816406 -16.617188 1.328125 -14.390625 C 1.046875 -12.941406 0.875 -11.488281 0.8125 -10.03125 C 0.570312 -7.320312 1.726562 -6.488281 4.28125 -7.53125 C 6.78125 -8.570312 9.203125 -10.894531 11.546875 -14.5 C 12.648438 -15.476562 13.03125 -15.171875 12.6875 -13.578125 Z M 12.6875 -13.578125 "/></g></g><g transform="translate(303.639026, 120.078428)"><g><path d="M 17.09375 -13.890625 C 16.863281 -13.597656 16.613281 -13.320312 16.34375 -13.0625 C 15.4375 -12.28125 14.613281 -11.648438 13.875 -11.171875 C 13.132812 -10.691406 12.257812 -10.175781 11.25 -9.625 C 9.71875 -8.882812 8.664062 -8.820312 8.09375 -9.4375 C 7.519531 -10.050781 7.28125 -11.007812 7.375 -12.3125 C 7.53125 -14.144531 7.578125 -15.476562 7.515625 -16.3125 C 7.453125 -17.144531 7.132812 -17.378906 6.5625 -17.015625 C 5.988281 -16.660156 5.015625 -15.632812 3.640625 -13.9375 C 1.710938 -11.644531 0.15625 -9.125 -1.03125 -6.375 C -1.1875 -5.988281 -1.390625 -5.664062 -1.640625 -5.40625 C -1.898438 -5.144531 -2.242188 -4.976562 -2.671875 -4.90625 C -3.097656 -4.832031 -3.421875 -4.890625 -3.640625 -5.078125 C -3.859375 -5.265625 -3.914062 -5.5625 -3.8125 -5.96875 C -3.21875 -8.125 -2.601562 -10.269531 -1.96875 -12.40625 C -0.875 -16.101562 0.1875 -19.789062 1.21875 -23.46875 C 2 -26.21875 2.765625 -28.96875 3.515625 -31.71875 C 3.972656 -33.332031 4.421875 -34.941406 4.859375 -36.546875 C 4.898438 -36.679688 4.953125 -36.820312 5.015625 -36.96875 C 5.046875 -37.15625 5.085938 -37.335938 5.140625 -37.515625 C 5.203125 -37.703125 5.273438 -37.910156 5.359375 -38.140625 C 5.410156 -38.304688 5.554688 -38.460938 5.796875 -38.609375 C 6.046875 -38.765625 6.289062 -38.878906 6.53125 -38.953125 C 6.78125 -39.023438 6.984375 -39.039062 7.140625 -39 C 7.359375 -38.894531 7.492188 -38.769531 7.546875 -38.625 C 7.597656 -38.476562 7.59375 -38.3125 7.53125 -38.125 C 7.507812 -38.09375 7.503906 -38.039062 7.515625 -37.96875 C 7.347656 -37 7.164062 -36.054688 6.96875 -35.140625 C 5.769531 -30.085938 4.382812 -25.078125 2.8125 -20.109375 C 2.6875 -19.765625 2.550781 -19.359375 2.40625 -18.890625 C 2.15625 -18.210938 1.929688 -17.550781 1.734375 -16.90625 C 1.535156 -16.257812 1.5 -15.84375 1.625 -15.65625 C 1.757812 -15.476562 2.195312 -15.710938 2.9375 -16.359375 C 3.164062 -16.566406 3.367188 -16.773438 3.546875 -16.984375 C 4.117188 -17.515625 4.691406 -18.03125 5.265625 -18.53125 C 5.765625 -18.976562 6.351562 -19.273438 7.03125 -19.421875 C 8.632812 -19.796875 9.664062 -19.210938 10.125 -17.671875 C 10.300781 -17.046875 10.378906 -16.410156 10.359375 -15.765625 C 10.335938 -15.128906 10.289062 -14.492188 10.21875 -13.859375 C 10.21875 -13.679688 10.21875 -13.503906 10.21875 -13.328125 C 10.09375 -12.234375 10.253906 -11.640625 10.703125 -11.546875 C 11.160156 -11.460938 11.742188 -11.644531 12.453125 -12.09375 C 13.171875 -12.550781 13.890625 -13.078125 14.609375 -13.671875 C 15.109375 -14.035156 15.546875 -14.351562 15.921875 -14.625 C 16.304688 -14.894531 16.59375 -15.03125 16.78125 -15.03125 C 17.164062 -15.03125 17.363281 -14.90625 17.375 -14.65625 C 17.382812 -14.414062 17.289062 -14.160156 17.09375 -13.890625 Z M 17.09375 -13.890625 "/></g></g><g transform="translate(321.358499, 117.200364)"><g><path d="M 14.921875 -14.5625 C 15.316406 -14.414062 15.429688 -13.914062 15.265625 -13.0625 C 14.898438 -12.394531 14.503906 -11.765625 14.078125 -11.171875 C 13.660156 -10.578125 13.175781 -10.035156 12.625 -9.546875 C 12.570312 -9.535156 12.550781 -9.515625 12.5625 -9.484375 C 12.207031 -9.140625 11.828125 -8.832031 11.421875 -8.5625 C 7.929688 -6.625 5.910156 -7.097656 5.359375 -9.984375 C 4.066406 -8.429688 3.191406 -7.46875 2.734375 -7.09375 C 1.617188 -6.15625 0.347656 -5.613281 -1.078125 -5.46875 C -2.140625 -5.363281 -2.90625 -5.570312 -3.375 -6.09375 C -3.851562 -6.613281 -3.953125 -7.40625 -3.671875 -8.46875 C -3.234375 -10.132812 -2.488281 -11.679688 -1.4375 -13.109375 C -0.175781 -14.710938 1.273438 -16.070312 2.921875 -17.1875 C 3.804688 -17.820312 4.785156 -18.171875 5.859375 -18.234375 C 6.921875 -18.347656 7.65625 -17.851562 8.0625 -16.75 C 8.207031 -16.4375 8.164062 -16.117188 7.9375 -15.796875 C 7.65625 -15.441406 7.269531 -15.3125 6.78125 -15.40625 C 6.75 -15.40625 6.707031 -15.40625 6.65625 -15.40625 C 6.613281 -15.414062 6.570312 -15.4375 6.53125 -15.46875 C 5.976562 -16 5.476562 -16.175781 5.03125 -16 C 4.59375 -15.832031 4.148438 -15.550781 3.703125 -15.15625 C 1.535156 -13.382812 0.0703125 -11.15625 -0.6875 -8.46875 C -0.71875 -8.351562 -0.726562 -8.226562 -0.71875 -8.09375 C -0.71875 -7.957031 -0.671875 -7.859375 -0.578125 -7.796875 C -0.273438 -7.742188 0.03125 -7.8125 0.34375 -8 C 0.65625 -8.1875 0.957031 -8.4375 1.25 -8.75 C 1.550781 -9.070312 1.8125 -9.328125 2.03125 -9.515625 C 2.050781 -9.578125 2.0625 -9.609375 2.0625 -9.609375 C 3.039062 -10.734375 3.988281 -11.878906 4.90625 -13.046875 C 5.3125 -13.640625 5.863281 -14.023438 6.5625 -14.203125 C 7.582031 -14.367188 8.082031 -13.976562 8.0625 -13.03125 C 8.03125 -12.6875 7.984375 -12.332031 7.921875 -11.96875 C 7.753906 -10.4375 7.878906 -9.570312 8.296875 -9.375 C 8.710938 -9.175781 9.285156 -9.265625 10.015625 -9.640625 C 10.742188 -10.023438 11.429688 -10.640625 12.078125 -11.484375 C 12.722656 -12.328125 13.257812 -13.085938 13.6875 -13.765625 C 14.113281 -14.453125 14.523438 -14.71875 14.921875 -14.5625 Z M 14.921875 -14.5625 "/></g></g></g></svg>